<svg width="118" height="118" viewBox="0 0 118 118" fill="none" xmlns="http://www.w3.org/2000/svg">
<circle cx="59" cy="59" r="57.5" stroke="#9D8660" stroke-width="3"/>
<path d="M44.1134 74.3402L55.7919 72.2793L87.3927 40.6785C88.6292 39.442 89.4536 37.6559 89.4536 35.8697C89.4536 32.0227 86.4309 29 82.5838 29C80.6603 29 79.0116 29.8244 77.775 31.0609L46.1743 62.6616L44.1134 74.3402ZM79.6986 32.9845C80.3855 32.2975 81.4847 31.7479 82.5838 31.7479C84.9196 31.7479 86.7057 33.534 86.7057 35.8697C86.7057 36.9689 86.2935 38.068 85.4691 38.755L83.683 40.5411L77.9124 34.7706L79.6986 32.9845ZM75.9889 36.6941L81.7595 42.4647L56.4789 67.7453V64.7226V61.9747H53.731H50.7083L75.9889 36.6941ZM48.6474 64.7226H53.731V69.8062L47.5483 70.9053L48.6474 64.7226ZM88.0796 49.6092C87.2553 49.6092 86.7057 50.1587 86.7057 50.9831V81.2099C86.7057 84.2326 84.2326 86.7057 81.2099 86.7057H37.2437C34.221 86.7057 31.7479 84.2326 31.7479 81.2099V37.2437C31.7479 34.221 34.221 31.7479 37.2437 31.7479H67.4705C68.2948 31.7479 68.8444 31.1983 68.8444 30.3739C68.8444 29.5496 68.2948 29 67.4705 29H37.2437C32.7097 29 29 32.7097 29 37.2437V81.2099C29 85.7439 32.7097 89.4536 37.2437 89.4536H81.2099C85.7439 89.4536 89.4536 85.7439 89.4536 81.2099V50.9831C89.4536 50.1587 88.904 49.6092 88.0796 49.6092Z" fill="#9D8660"/>
</svg>
