<svg width="118" height="118" viewBox="0 0 118 118" fill="none" xmlns="http://www.w3.org/2000/svg">
<circle cx="59" cy="59" r="57.5" stroke="#9D8660" stroke-width="3"/>
<path d="M46.3655 78.462H43.6176C42.7932 78.462 42.2437 79.0116 42.2437 79.836C42.2437 80.6603 42.7932 81.2099 43.6176 81.2099H46.3655C47.1899 81.2099 47.7394 80.6603 47.7394 79.836C47.7394 79.0116 47.1899 78.462 46.3655 78.462ZM49.1134 72.9662H43.6176C42.7932 72.9662 42.2437 73.5158 42.2437 74.3402C42.2437 75.1645 42.7932 75.7141 43.6176 75.7141H49.1134C49.9378 75.7141 50.4873 75.1645 50.4873 74.3402C50.4873 73.5158 49.9378 72.9662 49.1134 72.9662ZM66.9747 39.9916H39.4958C36.4731 39.9916 34 42.4647 34 45.4873V83.9578C34 86.9805 36.4731 89.4536 39.4958 89.4536H66.9747C69.9974 89.4536 72.4705 86.9805 72.4705 83.9578V45.4873C72.4705 42.4647 69.9974 39.9916 66.9747 39.9916ZM69.7226 83.9578C69.7226 85.4691 68.486 86.7057 66.9747 86.7057H39.4958C37.9844 86.7057 36.7479 85.4691 36.7479 83.9578V49.4718C40.0454 52.0823 43.8924 53.1814 49.3882 53.5936C49.9378 55.2423 51.4491 56.4789 53.2352 56.4789C55.0214 56.4789 56.6701 55.2423 57.0823 53.5936C62.5781 53.1814 66.2877 52.0823 69.7226 49.4718V83.9578ZM51.8613 52.3571C51.8613 51.5327 52.4109 50.9831 53.2352 50.9831C54.0596 50.9831 54.6092 51.5327 54.6092 52.3571C54.6092 53.1814 54.0596 53.731 53.2352 53.731C52.4109 53.731 51.8613 53.1814 51.8613 52.3571ZM69.7226 46.0369C66.9747 48.9222 62.9902 50.4335 57.0823 50.8457C56.5327 49.3344 55.0214 48.2352 53.2352 48.2352C51.4491 48.2352 50.0752 49.3344 49.3882 50.8457C43.3428 50.4335 39.3584 48.9222 36.7479 46.0369V45.4873C36.7479 43.976 37.9844 42.7394 39.4958 42.7394H66.9747C68.486 42.7394 69.7226 43.976 69.7226 45.4873V46.0369ZM77.9662 29H50.4873C47.4647 29 44.9916 31.4731 44.9916 34.4958V35.8697C44.9916 36.6941 45.5411 37.2437 46.3655 37.2437C47.1899 37.2437 47.7394 36.6941 47.7394 35.8697V34.4958C47.7394 32.9844 48.976 31.7479 50.4873 31.7479H77.9662C79.4776 31.7479 80.7141 32.9844 80.7141 34.4958V72.9662C80.7141 74.4776 79.4776 75.7141 77.9662 75.7141H76.5923C75.7679 75.7141 75.2183 76.2637 75.2183 77.0881C75.2183 77.9124 75.7679 78.462 76.5923 78.462H77.9662C80.9889 78.462 83.462 75.9889 83.462 72.9662V34.4958C83.462 31.4731 80.9889 29 77.9662 29Z" fill="#9D8660"/>
</svg>
