<svg width="118" height="118" viewBox="0 0 118 118" fill="none" xmlns="http://www.w3.org/2000/svg">
<circle cx="59" cy="59" r="57.5" stroke="#9D8660" stroke-width="3"/>
<path d="M58.265 46.823C58.5398 47.0978 58.8146 47.2352 59.2268 47.2352C59.639 47.2352 59.9138 47.0978 60.1886 46.823L65.6843 41.3273C65.9591 41.0525 66.0965 40.7777 66.0965 40.3655C66.0965 39.5411 65.5469 38.9916 64.7226 38.9916C64.3104 38.9916 64.0356 39.1289 63.7608 39.4037L60.6007 42.5638V29.3739C60.6007 28.5496 60.0512 28 59.2268 28C58.4024 28 57.8528 28.5496 57.8528 29.3739V42.5638L54.6928 39.4037C54.418 39.1289 54.1432 38.9916 53.731 38.9916C52.9066 38.9916 52.3571 39.5411 52.3571 40.3655C52.3571 40.7777 52.4945 41.0525 52.7692 41.3273L58.265 46.823ZM86.7057 49.9831H31.7479C30.2366 49.9831 29 51.2197 29 52.731V55.4789C29 56.9902 30.2366 58.2268 31.7479 58.2268H32.2975L37.2437 81.8586C37.3811 82.4082 37.9306 82.9578 38.6176 82.9578H79.836C80.5229 82.9578 80.9351 82.5456 81.2099 81.8586L86.1561 58.2268H86.7057C88.217 58.2268 89.4536 56.9902 89.4536 55.4789V52.731C89.4536 51.2197 88.217 49.9831 86.7057 49.9831ZM35.1828 58.2268H44.663L45.4873 63.7226H36.2819L35.1828 58.2268ZM36.8315 66.4705H45.8995L46.7239 71.9662H38.068L36.8315 66.4705ZM39.7168 80.2099L38.6176 74.7141H47.1361L47.9604 80.2099H39.7168ZM57.8528 80.2099H50.7083L49.884 74.7141H57.8528V80.2099ZM57.8528 71.9662H49.4718L48.6474 66.4705H57.8528V71.9662ZM57.8528 63.7226H48.0978L47.2735 58.2268H57.8528V63.7226ZM67.7452 80.2099H60.6007V74.7141H68.5696L67.7452 80.2099ZM68.9818 71.9662H60.6007V66.4705H69.8062L68.9818 71.9662ZM60.6007 63.7226V58.2268H71.1801L70.3557 63.7226H60.6007ZM78.7368 80.2099H70.4931L71.3175 74.7141H79.836L78.7368 80.2099ZM80.5229 71.9662H71.8671L72.6914 66.4705H81.7595L80.5229 71.9662ZM82.3091 63.7226H73.1036L73.928 58.2268H83.4082L82.3091 63.7226ZM86.7057 55.4789H31.7479V52.731H86.7057V55.4789Z" fill="#9D8660"/>
</svg>
