<svg width="118" height="118" viewBox="0 0 118 118" fill="none" xmlns="http://www.w3.org/2000/svg">
<circle cx="59" cy="59" r="57.5" stroke="#9D8660" stroke-width="3"/>
<path d="M51.8613 75.7141H46.3655C45.5411 75.7141 44.9916 76.2637 44.9916 77.0881C44.9916 77.9124 45.5411 78.462 46.3655 78.462H51.8613C52.6856 78.462 53.2352 77.9124 53.2352 77.0881C53.2352 76.2637 52.6856 75.7141 51.8613 75.7141ZM77.9662 29H39.4958C36.4731 29 34 31.4731 34 34.4958V83.9578C34 86.9805 36.4731 89.4536 39.4958 89.4536H77.9662C80.9889 89.4536 83.462 86.9805 83.462 83.9578V34.4958C83.462 31.4731 80.9889 29 77.9662 29ZM80.7141 83.9578C80.7141 85.4691 79.4776 86.7057 77.9662 86.7057H39.4958C37.9844 86.7057 36.7479 85.4691 36.7479 83.9578V39.8542C40.8697 42.7394 48.0142 44.8004 54.7466 45.3499C55.2961 46.9987 56.8075 48.2352 58.731 48.2352C60.6545 48.2352 62.1659 46.9987 62.7154 45.3499C69.4478 44.8004 76.5923 42.7394 80.7141 39.8542V83.9578ZM57.3571 44.1134C57.3571 43.289 57.9066 42.7394 58.731 42.7394C59.5554 42.7394 60.1049 43.289 60.1049 44.1134C60.1049 44.9378 59.5554 45.4873 58.731 45.4873C57.9066 45.4873 57.3571 44.9378 57.3571 44.1134ZM80.7141 36.2819C77.1419 39.5794 69.86 41.9151 62.5781 42.6021C62.0285 41.0907 60.5171 39.9916 58.731 39.9916C56.9449 39.9916 55.5709 41.0907 54.884 42.6021C47.7394 41.9151 40.3201 39.5794 36.7479 36.2819V34.4958C36.7479 32.9844 37.9844 31.7479 39.4958 31.7479H77.9662C79.4776 31.7479 80.7141 32.9844 80.7141 34.4958V36.2819ZM54.6092 70.2183H46.3655C45.5411 70.2183 44.9916 70.7679 44.9916 71.5923C44.9916 72.4167 45.5411 72.9662 46.3655 72.9662H54.6092C55.4335 72.9662 55.9831 72.4167 55.9831 71.5923C55.9831 70.7679 55.4335 70.2183 54.6092 70.2183Z" fill="#9D8660"/>
</svg>
