<svg width="14" height="24" viewBox="0 0 14 24" fill="none" xmlns="http://www.w3.org/2000/svg">
<path d="M7.02957 12.4647C10.214 12.4647 12.816 9.87114 12.816 6.69694C12.816 3.52275 10.214 0.929199 7.02957 0.929199C3.8451 0.929199 1.24316 3.52275 1.24316 6.69694C1.24316 9.87114 3.8451 12.4647 7.02957 12.4647ZM7.02957 4.29694C8.34995 4.29694 9.43734 5.36146 9.43734 6.69694C9.43734 8.01307 8.36937 9.09694 7.02957 9.09694C5.70918 9.09694 4.62181 8.03243 4.62181 6.69694C4.64122 5.38081 5.70918 4.29694 7.02957 4.29694Z" fill="white"/>
<path d="M9.37859 17.1677C10.5631 16.8967 11.6893 16.4322 12.7572 15.7742C13.5534 15.2709 13.8058 14.2451 13.3009 13.4322C12.7961 12.6387 11.7669 12.3871 10.9514 12.8903C8.58247 14.3806 5.5145 14.3806 3.16498 12.8903C2.36886 12.3871 1.32031 12.6193 0.815455 13.4322C0.310599 14.2258 0.543619 15.2709 1.35915 15.7742C2.4077 16.4322 3.55333 16.8967 4.7378 17.1677L1.49507 20.4C0.834872 21.058 0.834872 22.1419 1.49507 22.8C1.84458 23.129 2.27177 23.3032 2.69896 23.3032C3.12614 23.3032 3.57275 23.1484 3.90285 22.8L7.08733 19.6258L10.2718 22.8C10.932 23.458 12.0194 23.458 12.6796 22.8C13.3398 22.1419 13.3398 21.058 12.6796 20.4L9.37859 17.1677Z" fill="white"/>
</svg>
