<svg width="17" height="17" viewBox="0 0 17 17" fill="none" xmlns="http://www.w3.org/2000/svg">
<path d="M8.78245 8.13199L16.1615 0.768022C16.2521 0.677666 16.2973 0.587311 16.2973 0.451778C16.2973 0.180711 16.1163 0 15.8446 0C15.7088 0 15.6183 0.0451777 15.5277 0.135533L8.14867 7.49951L0.769595 0.135533C0.679054 0.0451777 0.588515 0 0.452704 0C0.181081 0 0 0.180711 0 0.451778C0 0.587311 0.0452717 0.677666 0.135812 0.768022L7.51488 8.13199L0.135812 15.496C0.0452717 15.5863 0 15.6767 0 15.8122C0 16.0833 0.181081 16.264 0.452704 16.264C0.588515 16.264 0.679054 16.2188 0.769595 16.1285L8.14867 8.76448L15.5277 16.1285C15.6183 16.2188 15.7088 16.264 15.8446 16.264C16.1163 16.264 16.2973 16.0833 16.2973 15.8122C16.2973 15.6767 16.2521 15.5863 16.1615 15.496L8.78245 8.13199Z" fill="#BCA47C"/>
</svg>
