<svg width="24" height="23" viewBox="0 0 24 23" fill="none" xmlns="http://www.w3.org/2000/svg">
<path d="M15.5239 11.1547C15.5239 13.0128 14.0094 14.5031 12.1647 14.5031C10.3006 14.5031 8.80548 12.9934 8.80548 11.1547C8.80548 9.31602 10.3006 7.80635 12.1453 7.80635C14.0094 7.80635 15.5239 9.31602 15.5239 11.1547ZM12.1453 0.00634766C5.97052 0.00634766 0.941406 5.01925 0.941406 11.1741C0.941406 17.3289 5.97052 22.3225 12.1453 22.3225C14.3977 22.3225 16.5919 21.6451 18.456 20.387L18.4948 20.3676L16.9802 18.6257L16.9608 18.6451C15.5239 19.5547 13.8734 20.058 12.1453 20.058C7.23266 20.058 3.25208 16.0709 3.25208 11.1934C3.25208 6.31602 7.25207 2.32893 12.1453 2.32893C17.0579 2.32893 21.0385 6.31602 21.0385 11.1934C21.0385 11.8322 20.9608 12.4709 20.8249 13.1096C20.553 14.2709 19.7375 14.6192 19.1356 14.5612C18.5336 14.5031 17.8152 14.0773 17.7958 13.0128V11.1934C17.7958 8.07731 15.2521 5.54183 12.1259 5.54183C8.99965 5.54183 6.45596 8.07731 6.45596 11.1934C6.45596 14.3096 8.99965 16.8451 12.1259 16.8451C13.6404 16.8451 15.0579 16.2451 16.1453 15.1805C16.7666 16.1483 17.7958 16.7483 18.9414 16.8451C19.0385 16.8451 19.1356 16.8644 19.2521 16.8644C20.0676 16.8644 20.8637 16.5934 21.5239 16.1096C22.2035 15.6063 22.689 14.8709 22.9608 13.9805C22.9996 13.8451 23.0967 13.516 23.0967 13.516V13.4967C23.2521 12.7805 23.3297 12.0838 23.3297 11.2128C23.3492 4.9999 18.32 0.00634766 12.1453 0.00634766Z" fill="white"/>
</svg>
