<svg width="26" height="26" viewBox="0 0 26 26" fill="none" xmlns="http://www.w3.org/2000/svg">
<path fill-rule="evenodd" clip-rule="evenodd" d="M12.9966 25.9932C20.1744 25.9932 25.9932 20.1744 25.9932 12.9966C25.9932 5.81878 20.1744 0 12.9966 0C5.81878 0 0 5.81878 0 12.9966C0 20.1744 5.81878 25.9932 12.9966 25.9932ZM20 10.2235C20 13.1106 17.5043 15.4469 14.4203 15.4469H12.0058V16.6748H16.9309V19.7397H12.0058V22H8.35362V19.7397H6V16.6748H8.35362V15.4469H6V12.0279H8.35362V8.41899V6.82346V5H14.4203C17.5043 5 20 7.33631 20 10.2235ZM14.4203 8.4H12.0058V12.0089H14.4203C15.4754 12.0089 16.3478 11.1922 16.3478 10.2045C16.3478 9.21676 15.4754 8.4 14.4203 8.4Z" fill="#C4C4C4"/>
</svg>
