<svg width="55" height="41" viewBox="0 0 55 41" fill="none" xmlns="http://www.w3.org/2000/svg">
<path opacity="0.5" d="M6.68086e-07 39.705V20.3299C-0.00022155 20.0985 0.0549948 19.8703 0.161225 19.6635C0.267456 19.4567 0.421747 19.2772 0.611735 19.1392L10.0347 12.3022C11.4368 11.2844 13.1374 10.736 14.8837 10.7384C15.163 10.7391 15.4421 10.7537 15.7199 10.7823V22.3053C15.7009 23.0472 15.9582 23.7706 16.4439 24.341C16.8498 24.801 17.3919 25.1262 17.9952 25.2717C18.5985 25.4172 19.2331 25.3757 19.8112 25.1531L32.624 20.2476C33.0495 20.0843 33.5026 20.0006 33.9597 20.0007C34.7181 20.0013 35.4577 20.2317 36.0768 20.6601C36.6959 21.0885 37.164 21.6939 37.4168 22.3931C37.6849 23.1776 37.6733 24.0278 37.3838 24.805C37.0944 25.5823 36.5442 26.2407 35.823 26.673L29.1163 30.8213H36.8444C37.1718 30.8213 37.4859 30.9485 37.7174 31.1749C37.949 31.4013 38.0791 31.7083 38.0791 32.0285V36.7145C38.0309 37.3591 37.7832 37.974 37.3689 38.4775C36.9546 38.9811 36.3933 39.3494 35.7597 39.5334C35.1261 39.7175 34.4502 39.7086 33.8219 39.5079C33.1936 39.3072 32.6426 38.9243 32.2423 38.4101C32.0229 39.0402 31.6073 39.5873 31.0537 39.9748C30.5002 40.3623 29.8364 40.5707 29.1556 40.5707C28.4748 40.5707 27.8111 40.3623 27.2575 39.9748C26.7039 39.5873 26.2883 39.0402 26.0689 38.4101C25.6936 38.8896 25.1869 39.255 24.6075 39.464C24.0281 39.6729 23.4 39.7167 22.7962 39.5902C22.1924 39.4637 21.6377 39.1722 21.1967 38.7496C20.7557 38.327 20.4465 37.7906 20.3051 37.2029C16.55 39.6755 12.1263 40.9975 7.59898 41H1.32449C1.15056 41 0.978325 40.9665 0.81763 40.9014C0.656936 40.8363 0.510925 40.741 0.387935 40.6207C0.264944 40.5005 0.167383 40.3577 0.100821 40.2006C0.0342596 40.0435 6.68086e-07 39.8751 6.68086e-07 39.705ZM52.8786 0H21.652C21.0894 0 20.5498 0.218525 20.152 0.607502C19.7541 0.99648 19.5306 1.52405 19.5306 2.07414V6.08525H55V2.07963C55.0007 1.80679 54.9464 1.53649 54.8401 1.2842C54.7338 1.03192 54.5777 0.802625 54.3806 0.609441C54.1836 0.416257 53.9494 0.262986 53.6917 0.158408C53.4339 0.0538294 53.1576 -9.54759e-07 52.8786 0ZM19.5306 21.3999L31.277 16.9059C32.128 16.5791 33.0342 16.4116 33.9485 16.4121C35.459 16.4177 36.9314 16.8763 38.1669 17.7261C39.4024 18.5758 40.3414 19.7758 40.8571 21.1639C41.2126 22.1533 41.3405 23.2072 41.2319 24.2505C41.1232 25.2937 40.7807 26.3008 40.2286 27.1998H52.8786C53.4383 27.1998 53.9753 26.9836 54.3727 26.5981C54.7701 26.2127 54.9955 25.6894 55 25.1421V10.0031H19.5306V21.3999Z" fill="#5E616B"/>
</svg>
