<svg width="53" height="56" viewBox="0 0 53 56" fill="none" xmlns="http://www.w3.org/2000/svg">
<path opacity="0.5" d="M32.406 29.4544C35.2456 29.4544 38.0215 28.5908 40.3827 26.9729C42.7438 25.3549 44.5842 23.0551 45.6711 20.3644C46.7581 17.6737 47.0428 14.7128 46.4892 11.8562C45.9356 8.99954 44.5686 6.37539 42.5611 4.31553C40.5535 2.25566 37.9956 0.852581 35.2106 0.283683C32.4257 -0.285215 29.5388 0.00561778 26.915 1.11941C24.2912 2.2332 22.0483 4.11994 20.4699 6.54106C18.8914 8.96219 18.0484 11.809 18.0473 14.7215C18.0465 16.656 18.4174 18.5717 19.1387 20.3591C19.8599 22.1466 20.9175 23.7708 22.2509 25.1389C23.5843 26.5071 25.1674 27.5924 26.9098 28.3328C28.6523 29.0733 30.5199 29.4544 32.406 29.4544ZM30.6564 7.70365C30.6816 7.24598 30.8766 6.81556 31.2015 6.5007C31.5263 6.18584 31.9563 6.01041 32.4032 6.01041C32.8501 6.01041 33.2801 6.18584 33.6049 6.5007C33.9297 6.81556 34.1247 7.24598 34.15 7.70365V13.99L38.106 18.0476C38.282 18.2103 38.4238 18.4081 38.5228 18.6289C38.6218 18.8497 38.6759 19.0889 38.6818 19.3319C38.6877 19.5749 38.6452 19.8165 38.557 20.0421C38.4688 20.2677 38.3367 20.4725 38.1688 20.6439C38.0008 20.8154 37.8006 20.95 37.5802 21.0394C37.3599 21.1289 37.1241 21.1714 36.8872 21.1642C36.6504 21.1571 36.4174 21.1005 36.2026 20.998C35.9877 20.8955 35.7955 20.7491 35.6376 20.5678L30.662 15.4644L30.6564 7.70365ZM14.6986 52.7025L11.4836 56L0 44.5245L8.22407 36.1351C9.89678 34.4361 12.0019 33.2542 14.2988 32.7246C16.5956 32.1951 18.9914 32.3392 21.2121 33.1405L23.0174 33.792H34.1332C34.6008 33.7918 35.0637 33.8878 35.4945 34.0742C35.9254 34.2606 36.3154 34.5337 36.6416 34.8773C36.9678 35.2209 37.2235 35.6281 37.3937 36.0748C37.5639 36.5215 37.645 36.9987 37.6324 37.4781C37.5793 38.4291 37.1699 39.3222 36.4898 39.9708C35.8096 40.6194 34.9114 40.9733 33.9828 40.9585H27.2966C26.936 40.9585 26.5902 41.1054 26.3352 41.3669C26.0803 41.6284 25.937 41.9831 25.937 42.3529C25.937 42.7227 26.0803 43.0774 26.3352 43.3389C26.5902 43.6004 26.936 43.7473 27.2966 43.7473H33.9828C35.6171 43.7552 37.1914 43.1162 38.3778 41.9632C39.5641 40.8103 40.2711 39.2324 40.3514 37.5581C40.3514 37.5295 40.3514 37.501 40.3514 37.4724L46.5474 30.3517C47.1748 29.6067 48.0576 29.1378 49.0129 29.042C49.9682 28.9463 50.9228 29.231 51.679 29.8373C52.0538 30.1544 52.3627 30.5453 52.5875 30.987C52.8123 31.4287 52.9485 31.9121 52.988 32.4087C53.0275 32.9053 52.9694 33.405 52.8174 33.8782C52.6653 34.3513 52.4222 34.7884 52.1025 35.1636L39.7553 49.6622C38.9434 50.6172 37.9415 51.3826 36.817 51.907C35.6925 52.4315 34.4715 52.7027 33.2362 52.7025H14.6986Z" fill="#5E616B"/>
</svg>
