<svg width="21" height="21" viewBox="0 0 21 21" fill="none" xmlns="http://www.w3.org/2000/svg">
<path d="M5.20959 5.15963C6.20716 4.16924 7.47583 3.49666 8.8554 3.2268C10.235 2.95695 11.6635 3.10193 12.9608 3.64344C14.258 4.18494 15.3657 5.09869 16.1439 6.2693C16.9222 7.43991 17.3361 8.81488 17.3335 10.2206H20.4298C20.4321 8.20275 19.8363 6.22949 18.7178 4.55003C17.5993 2.87056 16.0082 1.56023 14.1454 0.784512C12.2826 0.00879947 10.2318 -0.197495 8.25182 0.191683C6.27187 0.580862 4.45166 1.54806 3.02107 2.97111L0.670898 0.620938V7.70876H7.75872L5.20959 5.15963Z" fill="white"/>
<path d="M15.2699 15.2317C14.2802 16.234 13.0152 16.9198 11.6353 17.2023C10.2553 17.4847 8.82261 17.3511 7.51869 16.8184C6.21478 16.2856 5.09841 15.3777 4.31109 14.2097C3.52378 13.0418 3.10097 11.6664 3.09626 10.2578H0C0.00750412 12.2714 0.610311 14.2378 1.73259 15.9097C2.85487 17.5815 4.4465 18.8842 6.30726 19.6537C8.16801 20.4233 10.2148 20.6254 12.1901 20.2346C14.1655 19.8438 15.9811 18.8776 17.4087 17.4575L19.7091 19.7207V12.7821H12.8327L15.2699 15.2317Z" fill="white"/>
</svg>
