<svg width="32" height="20" viewBox="0 0 32 20" fill="none" xmlns="http://www.w3.org/2000/svg">
<g clip-path="url(#clip0)">
<path d="M9.29961 16H3.29961C2.89961 16 2.59961 16.3 2.59961 16.7C2.59961 17.1 2.89961 17.4 3.29961 17.4H9.29961C9.69961 17.4 9.99961 17.1 9.99961 16.7C9.99961 16.3 9.69961 16 9.29961 16Z" fill="#BCA47C"/>
<path d="M28.7 13.3H24.7C24.3 13.3 24 13.6 24 14C24 14.4 24.3 14.7 24.7 14.7H28.7C29.1 14.7 29.4 14.4 29.4 14C29.3 13.6 29 13.3 28.7 13.3Z" fill="#BCA47C"/>
<path d="M15.2996 13.3H3.29961C2.89961 13.3 2.59961 13.6 2.59961 14C2.59961 14.4 2.89961 14.7 3.29961 14.7H15.2996C15.6996 14.7 15.9996 14.4 15.9996 14C15.9996 13.6 15.6996 13.3 15.2996 13.3Z" fill="#BCA47C"/>
<path d="M29.3 0H2.7C1.2 0 0 1.2 0 2.7V17.4C0 18.8 1.2 20 2.7 20H29.4C30.9 20 32.1 18.8 32.1 17.3V2.7C32 1.2 30.8 0 29.3 0ZM5.2 5.3H7.1L4.4 8H2.5L5.2 5.3ZM1.3 7.3V5.3H3.3L1.3 7.3ZM9 5.3H10.9L8.2 8H6.3L9 5.3ZM12.8 5.3H14.7L12 8H10.1L12.8 5.3ZM16.5 5.3H18.4L15.7 8H13.8L16.5 5.3ZM20.3 5.3H22.2L19.5 8H17.6L20.3 5.3ZM24.1 5.3H26L23.3 8H21.4L24.1 5.3ZM27.8 5.3H29.7L27.1 8H25.2L27.8 5.3ZM30.7 6.3V8H29L30.7 6.3ZM2.7 1.3H29.4C30.1 1.3 30.7 1.9 30.7 2.6V4H1.3V2.7C1.3 1.9 1.9 1.3 2.7 1.3ZM29.3 18.7H2.7C2 18.7 1.4 18.1 1.4 17.4V9.4H30.7V17.4C30.7 18.1 30.1 18.7 29.3 18.7Z" fill="#BCA47C"/>
</g>
<defs>
<clipPath id="clip0">
<rect width="32" height="20" fill="white"/>
</clipPath>
</defs>
</svg>
