<svg width="28" height="32" viewBox="0 0 28 32" fill="none" xmlns="http://www.w3.org/2000/svg">
<path d="M19.3004 25.3001C19.3004 24.9001 19.0004 24.6001 18.6004 24.6001C18.2004 24.6001 17.9004 24.9001 17.9004 25.3001C17.9004 25.7001 18.2004 26.0001 18.6004 26.0001C19.0004 26.0001 19.3004 25.7001 19.3004 25.3001Z" fill="#BCA47C"/>
<path d="M5.9998 10.7H17.9998C18.3998 10.7 18.6998 10.4 18.6998 10C18.6998 9.60005 18.3998 9.30005 17.9998 9.30005H5.9998C5.5998 9.30005 5.2998 9.60005 5.2998 10C5.2998 10.4 5.5998 10.7 5.9998 10.7Z" fill="#BCA47C"/>
<path d="M5.9998 6.70005H17.9998C18.3998 6.70005 18.6998 6.40005 18.6998 6.00005C18.6998 5.60005 18.3998 5.30005 17.9998 5.30005H5.9998C5.5998 5.30005 5.2998 5.60005 5.2998 6.00005C5.2998 6.40005 5.5998 6.70005 5.9998 6.70005Z" fill="#BCA47C"/>
<path d="M5.9998 14.7H17.9998C18.3998 14.7 18.6998 14.4 18.6998 14C18.6998 13.6 18.3998 13.3 17.9998 13.3H5.9998C5.5998 13.3 5.2998 13.6 5.2998 14C5.2998 14.4 5.5998 14.7 5.9998 14.7Z" fill="#BCA47C"/>
<path d="M11.9998 17.3H5.9998C5.5998 17.3 5.2998 17.6 5.2998 18C5.2998 18.4 5.5998 18.7001 5.9998 18.7001H11.9998C12.3998 18.7001 12.6998 18.4 12.6998 18C12.6998 17.6 12.3998 17.3 11.9998 17.3Z" fill="#BCA47C"/>
<path d="M25.3 0H24H22.8H21.3H2.7C1.2 0 0 1.2 0 2.7V29.4H16V32L18.7 31.3L21.4 32V29.3H24V5.3H25.3C26.8 5.3 28 4.1 28 2.6C28 1.2 26.8 0 25.3 0ZM4 1.3H20V21.5C19.6 21.4 19.1 21.3 18.7 21.3C16.5 21.3 14.7 23.1 14.7 25.3H4V1.3ZM16 25.3C16 23.8 17.2 22.6 18.7 22.6C20.2 22.6 21.4 23.8 21.4 25.3C21.4 26.8 20.1 28 18.7 28C17.2 28 16 26.8 16 25.3ZM1.3 2.7C1.3 2 1.9 1.4 2.6 1.4V26.7H14.8C15 27.2 15.3 27.6 15.6 28H1.3V2.7ZM19 30H18.7H18.3L17.3 30.3V29.1C17.7 29.2 18.2 29.3 18.6 29.3C19.1 29.3 19.5 29.2 19.9 29.1V30.3L19 30ZM22.7 3.4V5.4V25.4V28H21.7C22.3 27.3 22.7 26.3 22.7 25.3C22.7 24.1 22.2 23.1 21.4 22.3V1.3H22.7V3.4ZM25.3 4C24.6 4 24 3.4 24 2.7C24 2 24.6 1.4 25.3 1.4C26 1.4 26.6 2 26.6 2.7C26.7 3.4 26.1 4 25.3 4Z" fill="#BCA47C"/>
</svg>
