<svg width="18" height="18" viewBox="0 0 18 18" fill="none" xmlns="http://www.w3.org/2000/svg">
<path d="M9.16321 0C4.28324 0 0.326812 3.92549 0.326812 8.76825C0.326812 10.4248 0.790152 11.9741 1.59481 13.2959L0 18L4.8923 16.4458C6.15825 17.1403 7.6142 17.5365 9.16321 17.5365C14.0438 17.5365 18 13.6105 18 8.76825C18 3.92549 14.0438 0 9.16321 0ZM13.5572 12.0982C13.3493 12.6135 12.4092 13.0839 11.9943 13.1055C11.5799 13.1275 11.5681 13.4267 9.30877 12.4452C7.04973 11.4635 5.69061 9.0765 5.58346 8.92278C5.47622 8.76962 4.70837 7.67535 4.74979 6.57414C4.7915 5.47272 5.39454 4.95309 5.60977 4.73697C5.82477 4.52053 6.07126 4.48176 6.22177 4.47931C6.39968 4.47642 6.51491 4.474 6.64658 4.47887C6.77812 4.48385 6.97572 4.45134 7.1468 4.90633C7.3178 5.36127 7.7271 6.47944 7.77946 6.59338C7.83177 6.70745 7.86415 6.83952 7.78355 6.98597C7.70271 7.13274 7.66133 7.22443 7.54405 7.35091C7.42613 7.47739 7.29599 7.63385 7.1908 7.73056C7.07348 7.83763 6.95093 7.95443 7.07428 8.18333C7.19755 8.41207 7.62284 9.16192 8.27076 9.77987C9.10346 10.5742 9.82157 10.8377 10.0426 10.9578C10.2641 11.0785 10.3964 11.0651 10.5338 10.9205C10.6705 10.7759 11.122 10.2878 11.2809 10.0699C11.4398 9.85142 11.5887 9.89421 11.7929 9.97634C11.9969 10.0588 13.0849 10.6415 13.3065 10.7619C13.5279 10.882 13.6759 10.9438 13.7288 11.0391C13.7817 11.1347 13.765 11.5828 13.5572 12.0982Z" fill="#BCA47C"/>
</svg>
