<svg width="275" height="69" viewBox="0 0 275 69" fill="none" xmlns="http://www.w3.org/2000/svg">
<g clip-path="url(#clip0)">
<path fill-rule="evenodd" clip-rule="evenodd" d="M137.426 2.51715L138.602 1.18454H141.983V14.5107H136.839C136.839 11.2532 135.81 8.4399 133.164 6.51501C130.224 4.29398 125.374 4.59012 122.288 6.51501C117.584 9.77252 116.114 15.3991 116.849 21.0257C117.584 25.3197 119.789 29.9099 124.198 31.6867C127.873 33.1674 132.282 32.427 134.928 29.3176C135.81 28.8734 135.663 26.2081 135.663 24.5794C135.663 23.691 135.075 22.9506 134.193 22.6545C133.164 22.2103 131.547 22.5064 130.371 22.3584V18.2124H147.274V22.3584C145.804 22.3584 143.894 22.0622 143.306 23.691L143.159 24.8755V36.4249H137.867L136.986 34.5C132.135 38.3498 123.61 37.9056 118.319 35.0923C111.852 31.8348 108.471 25.0236 108.912 17.9163C109.206 10.809 114.351 3.84977 120.965 1.3326C125.962 -0.888426 132.723 -0.148082 137.426 2.51715Z" fill="#183355"/>
<path fill-rule="evenodd" clip-rule="evenodd" d="M269.709 3.55364C270.15 2.8133 270.591 2.07295 271.032 1.18454C271.913 1.18454 272.942 1.18454 273.971 1.18454V14.2146H269.709C269.268 10.9571 267.651 7.5515 264.417 6.21888C261.625 5.03433 257.656 4.73819 255.011 6.51501C253.835 7.40343 253.247 8.43991 253.247 9.77253C253.247 11.1051 253.982 12.1416 255.011 12.882C256.333 13.7704 257.803 14.0665 259.42 14.3627C265.005 15.6953 272.06 15.8433 274.412 22.2103C275.441 26.2081 275 30.9463 272.06 34.0558C268.239 38.0536 261.919 38.0536 256.921 36.721C254.864 36.1288 253.1 35.2403 251.189 34.3519L250.307 36.573H246.927V22.5064H251.189C251.336 25.6159 252.512 28.5772 255.452 30.3541C258.391 32.279 262.801 33.3154 266.328 31.5386C268.092 30.6502 269.268 28.7253 268.974 26.6524C268.092 22.6545 263.683 22.6545 260.449 21.9142C255.452 20.8777 249.131 20.4335 247.368 14.6588C246.339 10.3648 247.368 6.07081 250.895 3.2575C255.158 -0.148077 262.36 -0.592283 267.21 1.92488C268.092 2.36909 268.827 2.96137 269.709 3.55364Z" fill="#183355"/>
<path fill-rule="evenodd" clip-rule="evenodd" d="M18.9604 5.33046C17.0497 5.6266 14.551 4.59012 13.3752 6.66308C12.9343 7.40342 12.9343 8.29183 12.9343 9.18025V32.427C18.0786 32.1309 24.9866 33.9077 26.8974 27.8369C27.6323 25.912 27.4853 23.5429 27.4853 21.3219H31.4538V36.5729H0V32.427C1.76376 32.427 3.96847 32.8712 4.85035 31.0944C5.43827 30.206 5.43827 29.0214 5.43827 27.985V6.81115C5.29129 5.92274 4.40941 5.47853 3.67451 5.33046C2.49866 5.18239 1.17584 5.33046 0 5.33046V1.18454H18.9604V5.33046Z" fill="#183355"/>
<path fill-rule="evenodd" clip-rule="evenodd" d="M98.918 24.2832V8.73604C98.771 7.55149 98.1831 6.21887 97.0073 5.6266C95.9784 5.03432 94.5086 5.18239 93.3328 5.18239V1.18454H109.207V5.33046C107.737 5.33046 106.12 5.03432 105.238 6.21887C104.209 7.40342 104.062 8.88411 104.062 10.5129V36.573H98.0361L80.2515 11.4013V29.7618C80.2515 30.7983 80.8394 31.6867 81.7213 32.279C82.8972 32.7232 84.367 32.5751 85.8368 32.5751V36.721H69.6689V32.5751C71.2857 32.5751 73.4904 32.8712 74.2253 31.3905C74.6663 30.5021 74.8133 29.6137 74.8133 28.5772V8.58797C74.5193 7.55149 74.2253 6.51501 73.1965 5.77467C72.3146 5.18239 70.9918 5.18239 69.8159 5.18239V1.18454H83.1911L98.918 24.2832Z" fill="#183355"/>
<path fill-rule="evenodd" clip-rule="evenodd" d="M198.129 24.2832V8.73604C197.982 7.55149 197.395 6.21887 196.219 5.6266C195.19 5.03432 193.72 5.18239 192.544 5.18239V1.18454H208.418V5.33046C206.948 5.33046 205.331 5.03432 204.45 6.21887C203.421 7.40342 203.421 8.88411 203.421 10.5129V36.573H197.395L179.61 11.4013V29.7618C179.61 30.7983 180.198 31.6867 181.08 32.279C182.256 32.7232 183.725 32.5751 185.195 32.5751V36.721H169.027V32.5751C170.644 32.5751 172.849 32.8712 173.584 31.3905C174.025 30.5021 174.172 29.6137 174.172 28.5772V8.58797C173.878 7.55149 173.584 6.51501 172.555 5.77467C171.526 5.18239 170.35 5.18239 169.174 5.18239V1.18454H182.55L198.129 24.2832Z" fill="#183355"/>
<path fill-rule="evenodd" clip-rule="evenodd" d="M165.941 5.33046C164.177 5.33046 162.119 5.03432 161.091 6.66308C160.65 7.55149 160.65 8.58797 160.65 9.47638V29.4657C160.797 30.5021 161.238 31.5386 162.119 32.1309C163.295 32.7232 164.765 32.427 165.941 32.5751V36.721H147.862V32.5751C149.479 32.5751 151.39 32.8712 152.566 31.6867C153.007 30.9463 153.301 30.206 153.301 29.4657V8.29183C153.154 7.25535 152.713 6.21887 151.831 5.6266C151.096 5.33046 149.332 5.33046 148.009 5.33046V1.18454H166.088V5.33046H165.941Z" fill="#183355"/>
<path fill-rule="evenodd" clip-rule="evenodd" d="M243.693 15.9914H239.578C239.872 12.1416 239.431 8.29183 235.903 6.21887C235.021 5.6266 233.845 5.33046 232.67 5.33046H223.116V15.9914C225.468 15.9914 228.554 16.1395 229.73 14.3626C230.318 13.1781 230.171 11.5493 230.171 10.0687H233.845V26.6523H230.171C230.024 24.5794 230.465 22.2103 228.554 21.0257C227.378 20.4335 225.027 20.4335 223.263 20.4335V32.5751H234.286C236.197 32.427 238.255 31.5386 238.99 29.6137C239.725 27.6888 239.578 24.5794 239.578 21.9142H243.693V36.721H210.329V32.5751C212.239 32.427 214.444 33.0193 215.473 31.0944C215.914 30.0579 215.767 29.0214 215.767 27.985V8.29183C215.767 7.25535 215.179 6.21887 214.15 5.6266C212.974 5.03432 211.504 5.33046 210.182 5.18239V1.18454H243.546V15.9914H243.693Z" fill="#183355"/>
<path fill-rule="evenodd" clip-rule="evenodd" d="M68.0522 10.0687C71.1388 15.2511 70.8448 23.2468 67.6112 28.2811C63.6428 34.6481 57.0287 38.2017 49.6797 37.4614C43.0655 36.8691 36.7454 31.8348 34.3937 25.6159C31.7481 18.8047 33.5118 10.6609 38.6561 5.62661C43.6535 0.444202 51.4434 -1.48069 58.0575 1.18455C62.026 2.66523 65.9945 6.07081 68.0522 10.0687ZM59.3804 9.03218C57.7636 6.81115 55.5589 5.33047 53.0602 4.88626C49.0917 4.44206 45.5642 6.21888 43.5065 9.62446C40.4199 14.6588 40.4199 22.6545 43.5065 27.6888C45.2703 30.5021 48.2099 32.427 51.4434 32.427C55.2649 32.5751 58.7924 29.7618 60.2622 26.3562C62.9079 21.1738 62.6139 13.7704 59.3804 9.03218Z" fill="#183355"/>
<path fill-rule="evenodd" clip-rule="evenodd" d="M122.287 42.1996C123.169 43.5322 124.051 45.0129 124.933 46.4935L127.579 42.1996H146.539C147.421 43.5322 148.156 45.0129 149.185 46.4935L151.83 42.3476H202.979L195.777 47.382H185.783L181.079 50.7875H171.673L166.822 54.4893H157.416L152.859 57.8948H145.069V68.8519H129.195V57.8948H121.405L116.702 54.3412H107.295L102.445 50.6395H93.1852L88.4818 47.382H78.4872L71.2852 42.3476H122.287V42.1996ZM124.933 49.4549L121.405 43.6802H75.6946L79.3691 45.9013H106.707L108.471 47.382H91.7154C92.5973 48.1223 93.3322 48.7146 94.2141 49.4549H116.114C116.702 49.8991 117.29 50.4914 117.584 50.9356H105.238C106.119 51.676 107.148 52.4163 108.03 53.0086H123.904C124.492 53.6008 125.227 53.897 125.668 54.4893H119.642C120.524 55.2296 121.405 55.6738 122.287 56.4141H129.195V46.1974H145.069V56.4141H151.977L154.623 54.4893H148.45L150.214 53.0086H166.087L168.88 50.9356C164.765 50.9356 160.649 50.9356 156.534 50.9356L158.15 49.4549H180.051L182.549 47.382H165.793C166.381 46.7897 166.969 46.3455 167.557 45.7532H194.896L198.717 43.5322H152.859L149.332 49.3068C148.156 47.382 146.833 45.4571 145.51 43.5322H128.754C127.432 45.6051 126.256 47.53 124.933 49.4549ZM141.395 50.3433L143.305 47.53H130.959L133.017 50.3433H141.395ZM136.397 57.4506C134.487 54.7854 132.576 52.2682 130.665 49.603V65.4463L136.397 57.4506ZM138.014 57.4506L143.452 65.0021V49.603C141.689 52.2682 139.778 54.7854 138.014 57.4506ZM137.279 56.2661L140.366 51.824H134.046L137.279 56.2661ZM133.899 63.3734H140.66L137.132 58.4871L133.899 63.3734ZM141.689 64.8541H132.723L130.812 67.6674H144.04C143.158 66.779 142.424 65.7425 141.689 64.8541Z" fill="#183355"/>
</g>
<defs>
<clipPath id="clip0">
<rect width="275" height="69" fill="white"/>
</clipPath>
</defs>
</svg>
