<svg width="269" height="135" viewBox="0 0 269 135" fill="none" xmlns="http://www.w3.org/2000/svg">
<g clip-path="url(#clip0)">
<path fill-rule="evenodd" clip-rule="evenodd" d="M88.0751 118.311L71.6125 80.1407L56.4668 133.843H63.7104L73.2587 100.3L88.0751 135L103.221 100.3L112.605 133.843H119.848L104.702 80.1407L88.0751 118.311Z" fill="#CE1320"/>
<path fill-rule="evenodd" clip-rule="evenodd" d="M27.4927 80.1407C19.426 80.1407 12.8409 82.9498 7.57283 88.5679C2.4694 93.8555 0 100.3 0 107.57C0 114.841 2.4694 121.12 7.4082 126.408C12.6763 132.191 19.426 135 27.4927 135C27.4927 135 27.4927 135 27.6573 135C35.3947 135 41.8152 132.191 47.2479 126.573C52.3513 121.285 54.9853 114.841 54.9853 107.57C54.9853 100.135 52.3513 93.8556 47.2479 88.4027C41.8152 82.9498 35.2301 80.1407 27.4927 80.1407ZM41.6506 122.442C38.0288 126.408 33.2546 128.39 27.4927 128.39C21.7307 128.39 16.9566 126.408 13.3348 122.442C9.71298 118.476 7.90208 113.519 7.90208 107.736C7.90208 101.952 9.71298 96.9951 13.3348 92.8641C16.9566 88.7332 21.7307 86.7503 27.4927 86.7503C33.2546 86.7503 38.0288 88.7332 41.6506 92.6989C45.2723 96.8298 47.0832 101.622 47.0832 107.57C47.0832 113.519 45.2723 118.476 41.6506 122.442Z" fill="#CE1320"/>
<path fill-rule="evenodd" clip-rule="evenodd" d="M125.61 67.7479V64.4431C120.342 61.1383 115.897 57.0074 112.275 51.5545C106.349 40.153 104.703 28.5863 112.769 17.1848C127.75 0.330479 138.122 6.77479 147.835 16.6891C154.255 25.9425 154.585 35.1958 152.115 44.4492C149.481 53.7026 144.872 60.3121 138.286 64.4431C138.286 65.765 138.286 66.426 138.286 67.7479C146.847 67.7479 157.383 67.7479 165.944 67.7479L170.389 57.3378C169.895 55.0245 168.907 55.355 166.767 55.355L163.31 60.1469C160.676 60.1469 157.877 60.1469 155.243 60.1469C157.548 56.6769 160.017 53.2069 162.322 49.5716C165.614 41.1444 166.932 32.2215 163.804 22.3072C157.548 0.991435 130.549 -4.79192 113.428 3.80049C102.892 8.92289 95.3189 19.1677 95.6482 32.8825C95.9774 43.2925 100.916 52.7112 108.16 60.1469C106.514 60.1469 103.55 60.1469 101.904 60.1469L96.1421 55.5202C94.4958 55.0245 93.3434 55.6854 93.0142 57.5031L98.9407 67.7479C107.995 67.7479 116.885 67.7479 125.61 67.7479Z" fill="#CE1320"/>
<path fill-rule="evenodd" clip-rule="evenodd" d="M243.977 80.306L218.954 133.843H226.856L233.441 119.633H244.142H254.678L261.263 133.843H269.165L243.977 80.306ZM243.977 113.188H235.91L243.977 97.1603L252.044 113.188H243.977Z" fill="#CE1320"/>
<path fill-rule="evenodd" clip-rule="evenodd" d="M125.445 133.843H156.56V127.234H132.689V108.727H156.56V102.117H132.689V87.7417H156.56V81.2974H125.445V133.843Z" fill="#CE1320"/>
<path fill-rule="evenodd" clip-rule="evenodd" d="M189.814 112.693H208.582C208.088 117.154 206.277 120.955 202.985 123.929C199.692 126.903 195.576 128.39 190.802 128.39C185.04 128.39 180.266 126.408 176.644 122.442C173.022 118.476 171.047 113.519 171.047 107.736C171.047 101.952 172.858 96.9951 176.644 92.8641C180.266 88.7332 185.04 86.7503 190.802 86.7503C193.765 86.7503 196.399 87.246 198.704 88.2375C201.009 89.2289 202.985 90.716 205.125 92.8641L210.557 88.4027C207.759 85.5936 204.795 83.6108 201.668 82.1236C198.54 80.6365 194.918 79.9755 190.967 79.9755C183.065 79.9755 176.315 82.7846 171.047 88.4027C165.944 93.6903 163.474 100.135 163.474 107.405C163.474 113.849 165.45 119.798 169.565 124.92C174.669 131.53 181.912 134.835 190.967 134.835C200.021 134.835 206.771 131.53 211.38 124.755C215.002 119.468 216.649 113.354 216.649 105.918H192.613L189.814 112.693Z" fill="#CE1320"/>
</g>
<defs>
<clipPath id="clip0">
<rect width="269" height="135" fill="white"/>
</clipPath>
</defs>
</svg>
