<svg width="191" height="32" viewBox="0 0 191 32" fill="none" xmlns="http://www.w3.org/2000/svg">
<g opacity="0.4">
<path d="M167.753 23.7721C167.753 17.9026 163.429 16.2175 158.304 16.2175C153.054 16.2175 148.855 17.8461 148.855 23.7721C148.855 29.6981 153.021 31.3266 158.304 31.3266C163.169 31.3606 167.753 29.6981 167.753 23.7721ZM151.237 23.806C151.237 19.4067 154.646 18.5472 158.304 18.5472C161.769 18.5472 165.371 19.4067 165.371 23.806C165.371 28.1714 161.871 29.0987 158.304 29.0987C154.612 29.0648 151.237 28.1374 151.237 23.806Z" fill="#3D4D66"/>
<path d="M102.751 16.8846H100.144V31.2926H102.751V16.8846Z" fill="#3D4D66"/>
<path d="M113.193 16.8846H110.552V31.3604H124.742V28.9968H113.193V16.8846Z" fill="#3D4D66"/>
<path d="M144.78 16.8846H124.866V19.1465H133.581V31.3604H136.223V19.1465H144.78V16.8846Z" fill="#3D4D66"/>
<path d="M190.872 31.3605V23.5232C190.872 21.0352 190.872 16.7716 182.473 16.7716C174.075 16.7716 174.007 21.0691 174.007 23.5232V31.3605H176.615C176.615 31.3605 176.615 26.7124 176.615 24.6655C176.682 22.1435 175.79 19.1239 182.372 19.1239C188.953 19.1239 188.163 22.1548 188.231 24.6655C188.231 26.7351 188.231 31.3605 188.231 31.3605H190.872Z" fill="#3D4D66"/>
<path d="M49.5353 16.7603C40.0188 16.7603 40.2446 21.0578 40.2446 23.5119V31.3492H42.9201C42.9201 31.3492 42.9201 28.4201 42.9201 26.3505H49.5692H56.1845C56.1845 28.4201 56.1845 31.3492 56.1845 31.3492H58.86V23.5119C58.7922 21.0351 59.0519 16.7603 49.5353 16.7603ZM56.1506 23.8624H49.5353H42.8862C42.8523 21.6006 42.3105 19.0787 49.5353 19.0787C56.7264 19.09 56.1845 21.5441 56.1506 23.8624Z" fill="#3D4D66"/>
<path d="M92.3879 31.3605V23.4214C92.354 19.9156 92.7039 16.4775 85.6484 16.4775C82.623 16.4775 80.3652 16.9865 79.4734 18.3888C78.6154 17.0204 76.3915 16.4775 73.3322 16.4775C66.5928 16.4775 66.6154 19.9156 66.5928 23.4214V31.3605H69.3585C69.3585 31.3605 69.3585 26.6446 69.3585 24.5071C69.4489 21.4762 68.5909 18.9656 73.2758 18.9656C78.3671 18.9656 78.1413 19.9269 78.1413 24.5071C78.1413 26.6106 78.1413 31.3605 78.1413 31.3605H79.4734H80.8393C80.8393 31.3605 80.8393 26.6446 80.8393 24.4732C80.8393 19.8816 80.6474 18.9317 85.7048 18.9317C90.3784 18.9317 89.4866 21.4536 89.6221 24.4732V31.3266L92.3879 31.3605Z" fill="#3D4D66"/>
<path d="M32.512 31.2587V16.7603H29.8365V22.3357H16.6398V16.7603H13.9644V31.2587H16.6398C16.6398 31.2587 16.6398 27.5606 16.6398 24.9821H29.8365V31.2587H32.512Z" fill="#3D4D66"/>
<path d="M11.7066 16.7603V14.4984H13.9643H16.6398H18.8976V16.7603V20.0739H23.2212V0H0V23.2631H11.7066V16.7603Z" fill="#3D4D66"/>
</g>
</svg>
