<svg width="140" height="34" viewBox="0 0 140 34" fill="none" xmlns="http://www.w3.org/2000/svg">
<g opacity="0.4">
<path d="M0 0.823242H6.57797L16.4287 24.5126L26.0689 0.823242H32.5901V32.5307H27.8025V7.9H27.7134L17.7735 32.5307H14.8247L4.54463 7.9H4.45552V32.5307H0C0 32.5226 0 0.823242 0 0.823242Z" fill="#3D4D66"/>
<path d="M46.2319 0.823242H50.7523V32.5307H46.2319V0.823242Z" fill="#3D4D66"/>
<path d="M64.9614 0.823242H77.4207C85.7242 0.823242 92.367 5.92794 92.367 16.673C92.367 27.5154 84.3632 32.5227 76.7564 32.5227H64.9614V0.823242ZM74.48 28.1565C81.7223 28.1565 87.636 24.5694 87.636 16.6811C87.636 8.79273 82.5162 4.98652 75.4522 4.98652H69.7572V28.1565H74.48Z" fill="#3D4D66"/>
<path d="M116.978 0.00352702C126.861 -0.175015 133.836 6.43917 133.836 16.6161C133.836 26.5171 126.861 33.1394 116.978 33.3179C107.216 33.3179 100.241 26.6956 100.241 16.7946C100.249 6.65018 107.224 0.00352702 116.978 0.00352702ZM117.01 28.9761C124.009 28.9761 128.619 23.6279 128.619 16.4376C128.619 9.69351 124.009 4.35347 117.01 4.35347C110.068 4.35347 105.434 9.70163 105.434 16.4376C105.466 23.6604 110.068 28.9761 117.01 28.9761Z" fill="#3D4D66"/>
<path d="M136.534 26.8174C138.356 26.8174 139.806 28.2782 139.806 30.0961C139.806 31.914 138.348 33.3748 136.534 33.3748C134.719 33.3748 133.261 31.914 133.261 30.0961C133.261 28.3025 134.711 26.8174 136.534 26.8174ZM136.534 32.7986C138.016 32.7986 139.231 31.5812 139.231 30.0961C139.231 28.6109 138.016 27.3936 136.534 27.3936C135.051 27.3936 133.836 28.6109 133.836 30.0961C133.836 31.5812 135.051 32.7986 136.534 32.7986ZM135.262 28.2133H136.72C137.627 28.2133 138.057 28.6109 138.057 29.3332C138.113 29.8526 137.724 30.3071 137.206 30.3639H137.174L138.146 31.9464H137.417L136.477 30.3963H135.958V31.9464H135.262V28.2133ZM135.958 29.8201H136.477C136.898 29.8201 137.36 29.7877 137.36 29.3007C137.36 28.7813 136.906 28.7813 136.477 28.7813H135.958V29.8201Z" fill="#3D4D66"/>
</g>
</svg>
