<svg width="142" height="71" viewBox="0 0 142 71" fill="none" xmlns="http://www.w3.org/2000/svg">
<g opacity="0.4">
<path fill-rule="evenodd" clip-rule="evenodd" d="M46.2338 61.9357L37.5742 41.9645L29.6226 70.0833H33.4386L38.3772 52.5166L46.2338 70.6715L54.0991 52.5166L59.0203 70.0833H62.8364L54.9107 41.9645L46.2338 61.9357Z" fill="#c50727"/>
<path fill-rule="evenodd" clip-rule="evenodd" d="M14.4269 41.9645C14.4097 41.9645 14.3838 41.9645 14.3665 41.9645C10.231 41.9818 6.77748 43.4435 3.99742 46.3497C1.33823 49.1607 0 52.4734 0 56.3137C0 60.0934 1.29505 63.3715 3.87654 66.1566C6.66523 69.1492 10.1533 70.6455 14.3665 70.6628C14.3838 70.6628 14.4097 70.6628 14.4269 70.6628C18.4589 70.6628 21.8951 69.2098 24.7011 66.2776C27.4035 63.4666 28.759 60.1367 28.759 56.3137C28.759 52.4561 27.4035 49.1174 24.7011 46.3064C21.9124 43.4176 18.5021 41.9645 14.4269 41.9645ZM21.8175 64.098C19.8835 66.1566 17.4229 67.1945 14.3924 67.1945C14.3924 67.1945 14.3924 67.1945 14.3751 67.1945C11.3447 67.1945 8.86684 66.1393 6.93289 64.0634C5.0162 61.9617 4.04922 59.3928 4.04922 56.3656C4.04922 53.3297 5.0162 50.7435 6.93289 48.6244C8.86684 46.5054 11.3533 45.4501 14.3751 45.4501C14.3924 45.4501 14.3924 45.4501 14.3924 45.4501C17.4229 45.4501 19.8835 46.5054 21.8175 48.6071C23.7341 50.7262 24.7011 53.321 24.7011 56.3656C24.7011 59.4534 23.7341 62.0135 21.8175 64.098Z" fill="#c50727"/>
<path fill-rule="evenodd" clip-rule="evenodd" d="M65.9011 35.4516V33.7131C63.1728 31.9746 60.7985 29.795 58.8991 26.958C55.7737 20.9554 54.9449 14.9701 59.1409 8.96746C66.9717 0.110584 72.4368 3.553 77.5652 8.72528C80.9324 13.5602 81.0964 18.3865 79.8272 23.2215C78.4113 28.0305 75.9939 31.5508 72.6008 33.7131C72.6008 34.3791 72.6008 34.7683 72.6008 35.4343C77.0817 35.4343 82.5901 35.4343 87.071 35.4343L89.428 30.0198C89.2035 28.783 88.6596 28.9473 87.5717 28.9906L85.7932 31.4556C84.3773 31.4556 82.9699 31.4556 81.554 31.4556C82.8059 29.6393 84.0578 27.797 85.2838 25.9547C87.0019 21.5089 87.6667 16.8556 86.0263 11.7266C82.5728 0.525751 68.4912 -2.46691 59.5121 1.96153C54.0038 4.65146 50.0063 10.0054 50.1531 17.2275C50.3172 22.642 52.9418 27.5807 56.732 31.4556C55.8859 31.4556 54.3146 31.4556 53.4858 31.4556L50.4985 29.0338C49.6524 28.7484 49.0221 29.1376 48.8667 30.089L51.9576 35.4689C56.6198 35.4516 61.2648 35.4516 65.9011 35.4516Z" fill="#c50727"/>
<path fill-rule="evenodd" clip-rule="evenodd" d="M127.969 42.0077L127.952 41.9645L114.837 70.0833H118.955L122.409 62.6882H127.977H133.529L136.982 70.0833H141.118L127.969 42.0077ZM127.969 59.2025H123.73L127.943 50.7695L127.96 50.8127L132.173 59.2025H127.969Z" fill="#c50727"/>
<path fill-rule="evenodd" clip-rule="evenodd" d="M65.7632 70.0834H82.15V66.6064H69.5793V56.9452H82.15V53.4681H69.5793V45.9692H82.15V42.5527H65.7632V70.0834Z" fill="#c50727"/>
<path fill-rule="evenodd" clip-rule="evenodd" d="M99.5382 59.0036H109.363C109.139 61.3649 108.155 63.3282 106.393 64.8851C104.658 66.4247 102.517 67.1858 99.9785 67.1858C96.9308 67.1858 94.4529 66.1306 92.5362 64.0548C90.6023 61.953 89.6267 59.3842 89.6267 56.3569C89.6267 53.321 90.5936 50.7349 92.5362 48.6158C94.4529 46.4967 96.9394 45.4415 99.9785 45.4415C101.576 45.4415 102.948 45.701 104.114 46.2459C105.288 46.7735 106.393 47.5779 107.447 48.6504L110.33 46.3497C108.854 44.9139 107.3 43.8241 105.651 43.0716C103.976 42.3277 102.12 41.9645 100.022 41.9645C95.8688 41.9645 92.3722 43.4176 89.5921 46.3497C86.9243 49.1607 85.5947 52.4734 85.5947 56.3137C85.5947 59.7128 86.648 62.766 88.7633 65.4906C91.4225 68.9503 95.204 70.6628 100.022 70.6628C104.762 70.6628 108.336 68.907 110.736 65.3695C112.61 62.6449 113.542 59.3669 113.542 55.5266H100.911L99.5382 59.0036Z" fill="#c50727"/>
</g>
</svg>
