<svg width="28" height="29" viewBox="0 0 28 29" fill="none" xmlns="http://www.w3.org/2000/svg">
<path d="M14 6.8343e-07C6.2779 8.34173e-09 5.94796e-08 6.50211 -6.39718e-07 14.5C-1.33892e-06 22.4979 6.27789 29 14 29C21.7221 29 28 22.4979 28 14.5C28 6.50211 21.7221 1.35852e-06 14 6.8343e-07ZM20.9853 15.7516L9.93263 15.7516L12.7916 18.7126C13.2632 19.2011 13.2632 19.9947 12.7916 20.4832C12.5558 20.7274 12.2316 20.8495 11.9368 20.8495C11.6126 20.8495 11.3179 20.7274 11.0821 20.4832L6.16 15.3853C5.92421 15.1411 5.80631 14.8358 5.80631 14.5C5.80631 14.1642 5.92421 13.8589 6.16 13.6147L11.0821 8.51684C11.5537 8.02842 12.32 8.02842 12.7916 8.51684C13.2632 9.00526 13.2632 9.79895 12.7916 10.2874L9.93263 13.2484L20.9853 13.2484C21.6632 13.2484 22.1937 13.7979 22.1937 14.5C22.1937 15.2021 21.6632 15.7516 20.9853 15.7516Z" fill="#BCA47C"/>
</svg>
