<svg width="118" height="118" viewBox="0 0 118 118" fill="none" xmlns="http://www.w3.org/2000/svg">
<circle cx="59" cy="59" r="57.5" stroke="#9D8660" stroke-width="3"/>
<path d="M83.9578 29H34.4958C31.4731 29 29 31.4731 29 34.4958V83.9578C29 86.9805 31.4731 89.4536 34.4958 89.4536H83.9578C86.9805 89.4536 89.4536 86.9805 89.4536 83.9578V34.4958C89.4536 31.4731 86.9805 29 83.9578 29ZM31.7479 34.4958C31.7479 32.9844 32.9844 31.7479 34.4958 31.7479H41.2281C40.5411 36.6941 36.6941 40.6785 31.7479 41.2281V34.4958ZM31.7479 43.976C38.2054 43.289 43.4264 38.2054 43.976 31.6105H57.8528V33.6714L55.1049 34.3584C54.1432 34.6332 53.3188 35.3201 53.1814 36.2819C52.6319 38.2054 51.8075 40.1289 50.8457 41.9151C50.2961 42.7394 50.2961 43.8386 50.8457 44.663L52.3571 47.1361L47.5483 51.9449L45.0752 50.4335C44.663 50.1588 44.1134 50.0214 43.7012 50.0214C43.289 50.0214 42.7394 50.1588 42.3273 50.4335C40.5411 51.3953 38.6176 52.2197 36.6941 52.7692C35.7323 53.044 35.0454 53.731 34.7706 54.6928L34.0836 57.5781H31.7479V43.976ZM77.0881 86.7057H67.4705C65.6843 84.37 64.7226 81.6221 64.7226 78.462C64.7226 76.5385 65.1347 74.7524 65.8217 72.9662L73.1036 77.0881C72.9662 77.5003 72.9662 78.0498 72.9662 78.462C72.9662 81.0725 74.7524 83.1334 77.0881 83.8204V86.7057ZM75.7141 78.462C75.7141 76.9507 76.9507 75.7141 78.462 75.7141C79.9734 75.7141 81.2099 76.9507 81.2099 78.462C81.2099 79.9734 79.9734 81.2099 78.462 81.2099C76.9507 81.2099 75.7141 79.9734 75.7141 78.462ZM86.7057 83.9578C86.7057 85.4691 85.4691 86.7057 83.9578 86.7057H79.836V83.8204C82.1717 83.2708 83.9578 81.0725 83.9578 78.462C83.9578 78.0498 83.8204 77.5003 83.8204 77.0881L86.7057 75.4393V83.9578ZM86.7057 72.2793L82.4465 74.615C81.4847 73.5158 79.9734 72.9662 78.462 72.9662C76.9507 72.9662 75.4393 73.6532 74.4776 74.615L67.1957 70.4931C69.6688 66.9209 73.7906 64.5852 78.462 64.5852C81.6221 64.5852 84.37 65.6843 86.7057 67.333V72.2793ZM86.7057 64.173C84.2326 62.799 81.4847 61.8373 78.462 61.8373C69.394 61.8373 61.9747 69.2566 61.9747 78.3246C61.9747 81.3473 62.799 84.0952 64.3104 86.5683H52.2197L50.9831 82.1717L53.5936 80.7977C54.418 80.2481 54.9676 79.4238 54.9676 78.3246C54.9676 76.2637 55.2423 74.2028 55.7919 72.2793C56.0667 71.3175 55.7919 70.2183 55.1049 69.5314L53.044 67.4705L56.4789 61.5625L59.3642 62.3869C60.3259 62.6617 61.4251 62.3869 62.1121 61.6999C63.6234 60.1886 65.1347 58.952 66.9209 57.9902C67.7452 57.4407 68.2948 56.6163 68.2948 55.5171V52.6318L74.8898 50.8457L76.2637 53.4562C76.5385 53.8684 76.8133 54.2806 77.2255 54.5554C77.6376 54.8302 78.0498 54.9675 78.5994 54.9675C80.6603 54.9675 82.7212 55.2423 84.6448 55.7919C85.3317 55.9293 86.1561 55.7919 86.8431 55.3797V64.173H86.7057ZM86.7057 51.6701L85.1943 53.1814C82.996 52.6319 80.6603 52.3571 78.462 52.3571L76.9507 49.7466C76.6759 49.197 76.2637 48.7848 75.8515 48.51C75.4393 48.2352 75.0271 48.2352 74.4776 48.3726L66.6461 50.4335C65.5469 50.7083 65.2721 51.8075 65.2721 52.9066V55.9293C63.3486 57.0285 61.4251 58.4024 59.7764 60.0512L56.8911 59.2268C55.9293 58.952 54.6928 58.952 54.1432 59.9138L50.1587 66.9209C49.6092 67.8826 50.1587 68.8444 50.8457 69.6688L53.044 71.7297C52.4945 73.928 52.2197 76.2637 52.2197 78.462L49.6092 79.836C48.7848 80.3855 47.9604 81.2099 48.2352 82.3091L49.3344 86.5683H34.4958C32.9844 86.5683 31.7479 85.3317 31.7479 83.8204V60.4633H34.3584C35.4575 60.4633 36.0071 59.5016 36.4193 58.4024L37.1063 55.5171C39.3046 54.9676 41.5029 54.0058 43.4264 52.9066L46.0369 54.418C46.5865 54.6928 47.1361 54.8302 47.6856 54.8302C48.0978 54.8302 48.51 54.6928 48.9222 54.418L54.5554 48.7848C55.3797 47.9604 55.105 46.8613 54.5554 45.8995L53.044 43.289C54.1432 41.3655 55.1049 39.1672 55.6545 36.9689L58.5398 36.2819C59.5016 36.0071 60.6007 35.3201 60.6007 34.221V31.7479H83.9578C85.4691 31.7479 86.7057 32.9844 86.7057 34.4958V51.6701Z" fill="#9D8660"/>
</svg>
