<svg width="118" height="118" viewBox="0 0 118 118" fill="none" xmlns="http://www.w3.org/2000/svg">
<circle cx="59" cy="59" r="57.5" stroke="#9D8660" stroke-width="3"/>
<path d="M42.7394 37.2437L41.2281 41.2281H37.2437L40.5411 43.7012L39.0298 48.2352L42.7394 45.4873L46.4491 48.2352L44.9378 43.7012L48.2352 41.2281H44.2508L42.7394 37.2437ZM42.7394 53.731L41.2281 57.7155H37.2437L40.5411 60.1886L39.0298 64.7226L42.7394 61.9747L46.4491 64.7226L44.9378 60.1886L48.2352 57.7155H44.2508L42.7394 53.731ZM44.2508 74.2028L42.7394 70.2183L41.2281 74.2028H37.2437L40.5411 76.6759L39.0298 81.2099L42.7394 78.462L46.4491 81.2099L44.9378 76.6759L48.2352 74.2028H44.2508ZM79.836 57.8528H55.1049C54.2806 57.8528 53.731 58.4024 53.731 59.2268C53.731 60.0512 54.2806 60.6007 55.1049 60.6007H79.836C80.6603 60.6007 81.2099 60.0512 81.2099 59.2268C81.2099 58.4024 80.6603 57.8528 79.836 57.8528ZM79.836 74.3402H55.1049C54.2806 74.3402 53.731 74.8898 53.731 75.7141C53.731 76.5385 54.2806 77.0881 55.1049 77.0881H79.836C80.6603 77.0881 81.2099 76.5385 81.2099 75.7141C81.2099 74.8898 80.6603 74.3402 79.836 74.3402ZM83.9578 29H34.4958C31.4731 29 29 31.4731 29 34.4958V83.9578C29 86.9805 31.4731 89.4536 34.4958 89.4536H83.9578C86.9805 89.4536 89.4536 86.9805 89.4536 83.9578V34.4958C89.4536 31.4731 86.9805 29 83.9578 29ZM86.7057 83.9578C86.7057 85.4691 85.4691 86.7057 83.9578 86.7057H34.4958C32.9844 86.7057 31.7479 85.4691 31.7479 83.9578V34.4958C31.7479 32.9844 32.9844 31.7479 34.4958 31.7479H83.9578C85.4691 31.7479 86.7057 32.9844 86.7057 34.4958V83.9578ZM79.836 41.3655H55.1049C54.2806 41.3655 53.731 41.9151 53.731 42.7394C53.731 43.5638 54.2806 44.1134 55.1049 44.1134H79.836C80.6603 44.1134 81.2099 43.5638 81.2099 42.7394C81.2099 41.9151 80.6603 41.3655 79.836 41.3655Z" fill="#9D8660"/>
</svg>
