<svg width="20" height="20" viewBox="0 0 20 20" fill="none" xmlns="http://www.w3.org/2000/svg">
<path d="M11.2723 14.0051C11.0007 14.0051 10.8196 13.9599 10.6838 13.8696C10.5933 13.7792 10.5027 13.5985 10.5027 13.3726C10.5027 13.2823 10.5027 13.1467 10.548 12.9208C10.5933 12.7401 10.6385 12.5594 10.6838 12.4239L11.2271 10.5716C11.2723 10.3909 11.3176 10.2102 11.3176 10.0295C11.3176 9.84875 11.3629 9.66804 11.3629 9.62286C11.3629 9.21626 11.2271 8.90002 10.9554 8.67413C10.6838 8.44824 10.2764 8.3127 9.7784 8.3127C9.50678 8.3127 9.18989 8.35788 8.87299 8.44824C8.5561 8.53859 8.19394 8.67413 7.87704 8.80966L7.69596 9.39697C7.7865 9.35179 7.92231 9.30661 8.05813 9.26144C8.19394 9.21626 8.32975 9.21626 8.46556 9.21626C8.73718 9.21626 8.91826 9.26144 9.05407 9.35179C9.14461 9.44215 9.18988 9.62286 9.18988 9.84875C9.18988 9.98428 9.18989 10.1198 9.14462 10.3005C9.09934 10.4361 9.05407 10.6168 9.0088 10.7975L8.46556 12.6498C8.42029 12.8305 8.37502 13.0112 8.37502 13.1919C8.37502 13.3274 8.32975 13.5081 8.32975 13.6437C8.32975 14.0051 8.46556 14.3213 8.78245 14.5924C9.05407 14.8183 9.46151 14.9538 10.0048 14.9538C10.3216 14.9538 10.6385 14.9087 10.9102 14.8183C11.1818 14.7279 11.4987 14.5924 11.9514 14.4569L12.0872 13.8696C11.9966 13.9147 11.9061 13.9599 11.725 14.0051C11.5892 14.0051 11.4081 14.0051 11.2723 14.0051ZM10.9554 4.96955C10.5933 4.96955 10.3216 5.10508 10.05 5.33097C9.7784 5.55686 9.68786 5.82793 9.68786 6.14417C9.68786 6.46042 9.82367 6.73148 10.05 6.95737C10.3216 7.18326 10.5933 7.27362 10.9554 7.27362C11.3176 7.27362 11.5892 7.18326 11.8608 6.95737C12.1325 6.73148 12.223 6.46042 12.223 6.14417C12.223 5.82793 12.0872 5.55686 11.8608 5.33097C11.5892 5.05991 11.3176 4.96955 10.9554 4.96955ZM9.95948 0C4.4365 0 0 4.4726 0 9.9391C0 15.4508 4.4365 19.8782 9.95948 19.8782C15.4825 19.8782 19.919 15.4508 19.919 9.9391C19.919 4.4726 15.4825 0 9.95948 0ZM9.95948 18.9747C4.97974 18.9747 0.905407 14.9087 0.905407 9.9391C0.905407 4.96955 4.97974 0.903555 9.95948 0.903555C14.9392 0.903555 19.0136 4.96955 19.0136 9.9391C19.0136 14.9087 14.9392 18.9747 9.95948 18.9747Z" fill="#BCA47C"/>
</svg>
