<svg width="31" height="38" viewBox="0 0 31 38" fill="none" xmlns="http://www.w3.org/2000/svg">
<path d="M7.66096 30.6438H5.95852C5.44779 30.6438 5.10731 30.9843 5.10731 31.495C5.10731 32.0058 5.44779 32.3463 5.95852 32.3463H7.66096C8.17169 32.3463 8.51217 32.0058 8.51217 31.495C8.51217 30.9843 8.17169 30.6438 7.66096 30.6438ZM9.36339 27.239H5.95852C5.44779 27.239 5.10731 27.5794 5.10731 28.0902C5.10731 28.6009 5.44779 28.9414 5.95852 28.9414H9.36339C9.87412 28.9414 10.2146 28.6009 10.2146 28.0902C10.2146 27.5794 9.87412 27.239 9.36339 27.239ZM20.4292 6.80974H3.40487C1.53219 6.80974 0 8.34193 0 10.2146V34.0487C0 35.9214 1.53219 37.4536 3.40487 37.4536H20.4292C22.3019 37.4536 23.8341 35.9214 23.8341 34.0487V10.2146C23.8341 8.34193 22.3019 6.80974 20.4292 6.80974ZM22.1317 34.0487C22.1317 34.985 21.3656 35.7511 20.4292 35.7511H3.40487C2.46853 35.7511 1.70244 34.985 1.70244 34.0487V12.6831C3.74536 14.3005 6.12877 14.9814 9.53364 15.2368C9.87413 16.2583 10.8105 17.0243 11.917 17.0243C13.0236 17.0243 14.0451 16.2583 14.3005 15.2368C17.7053 14.9814 20.0036 14.3005 22.1317 12.6831V34.0487ZM11.0658 14.4707C11.0658 13.96 11.4063 13.6195 11.917 13.6195C12.4278 13.6195 12.7683 13.96 12.7683 14.4707C12.7683 14.9814 12.4278 15.3219 11.917 15.3219C11.4063 15.3219 11.0658 14.9814 11.0658 14.4707ZM22.1317 10.5551C20.4292 12.3427 17.9607 13.279 14.3005 13.5344C13.96 12.598 13.0236 11.917 11.917 11.917C10.8105 11.917 9.95925 12.598 9.53364 13.5344C5.78828 13.279 3.31975 12.3427 1.70244 10.5551V10.2146C1.70244 9.27827 2.46853 8.51217 3.40487 8.51217H20.4292C21.3656 8.51217 22.1317 9.27827 22.1317 10.2146V10.5551ZM27.239 0H10.2146C8.34193 0 6.80974 1.53219 6.80974 3.40487V4.25609C6.80974 4.76682 7.15023 5.1073 7.66096 5.1073C8.17169 5.1073 8.51217 4.76682 8.51217 4.25609V3.40487C8.51217 2.46853 9.27827 1.70243 10.2146 1.70243H27.239C28.1753 1.70243 28.9414 2.46853 28.9414 3.40487V27.239C28.9414 28.1753 28.1753 28.9414 27.239 28.9414H26.3877C25.877 28.9414 25.5365 29.2819 25.5365 29.7926C25.5365 30.3033 25.877 30.6438 26.3877 30.6438H27.239C29.1116 30.6438 30.6438 29.1116 30.6438 27.239V3.40487C30.6438 1.53219 29.1116 0 27.239 0Z" fill="#BCA47C"/>
</svg>
