<svg width="16" height="16" viewBox="0 0 16 16" fill="none" xmlns="http://www.w3.org/2000/svg">
<path d="M15.8671 14.5731L11.7269 10.4022C11.5719 10.246 11.5563 10.0048 11.6763 9.82017C13.3736 7.2171 12.9777 3.63657 10.4737 1.49831C8.06435 -0.559296 4.39593 -0.48844 2.06205 1.65407C-0.617955 4.11428 -0.68571 8.30133 1.85944 10.8481C4.03038 13.0205 7.38941 13.2846 9.85684 11.6526C10.0422 11.5302 10.2849 11.5459 10.4412 11.7036L14.572 15.865C14.7506 16.0446 15.0407 16.0451 15.2198 15.866L15.8662 15.2191C16.0443 15.0405 16.0446 14.7515 15.8671 14.5731ZM3.15267 9.55438C1.38564 7.78607 1.38613 4.9097 3.15267 3.14237C4.91871 1.37456 7.79284 1.37456 9.55954 3.14237C11.3259 4.91019 11.3259 7.78656 9.55954 9.55438C7.79284 11.3219 4.9192 11.3224 3.15267 9.55438Z" fill="#C4C4C4"/>
</svg>
