<svg width="27" height="28" viewBox="0 0 27 28" fill="none" xmlns="http://www.w3.org/2000/svg">
<path d="M17.8383 14.0089C18.9237 12.0036 19.2508 9.67458 18.7599 7.44788C18.269 5.22118 16.9929 3.24562 15.165 1.88256C13.3371 0.519499 11.0796 -0.139951 8.80534 0.0248288C6.53113 0.189609 4.39225 1.1676 2.77993 2.77993C1.1676 4.39225 0.189609 6.53113 0.0248288 8.80534C-0.139951 11.0796 0.5195 13.3371 1.88256 15.165C3.24562 16.9929 5.22118 18.269 7.44788 18.7599C9.67458 19.2508 12.0036 18.9237 14.0089 17.8383L22.4385 26.2777C22.9065 26.7439 23.5401 27.0057 24.2006 27.0057C24.8611 27.0057 25.4947 26.7439 25.9626 26.2777L26.268 25.9723C26.5 25.7413 26.6841 25.4667 26.8097 25.1643C26.9353 24.8619 27 24.5377 27 24.2103C27 23.8828 26.9353 23.5586 26.8097 23.2562C26.6841 22.9539 26.5 22.6793 26.268 22.4482L17.8383 14.0089ZM9.50565 1.97762C10.9965 1.97762 12.4538 2.4197 13.6934 3.24796C14.933 4.07621 15.8991 5.25345 16.4696 6.63078C17.0401 8.00812 17.1894 9.52371 16.8985 10.9859C16.6077 12.4481 15.8898 13.7911 14.8356 14.8453C13.7815 15.8995 12.4384 16.6174 10.9762 16.9082C9.51401 17.1991 7.99843 17.0498 6.62109 16.4793C5.24375 15.9088 4.06652 14.9427 3.23827 13.7031C2.41001 12.4635 1.96793 11.0062 1.96793 9.51534C1.9705 7.517 2.76547 5.60125 4.17851 4.18821C5.59155 2.77516 7.50731 1.98019 9.50565 1.97762Z" fill="#BCA47C"/>
</svg>
