<svg width="32" height="26" viewBox="0 0 32 26" fill="none" xmlns="http://www.w3.org/2000/svg">
<g clip-path="url(#clip0)">
<path d="M2 2.00005C2 2.40005 2.3 2.70005 2.7 2.70005C3 2.70005 3.3 2.40005 3.3 2.00005C3.3 1.60005 3 1.30005 2.6 1.30005C2.3 1.30005 2 1.60005 2 2.00005Z" fill="#BCA47C"/>
<path d="M4 2.00005C4 2.40005 4.3 2.70005 4.7 2.70005C5 2.70005 5.3 2.40005 5.3 2.00005C5.3 1.60005 5 1.30005 4.6 1.30005C4.3 1.30005 4 1.60005 4 2.00005Z" fill="#BCA47C"/>
<path d="M6 2.00005C6 2.40005 6.3 2.70005 6.7 2.70005C7 2.70005 7.3 2.40005 7.3 2.00005C7.3 1.60005 7 1.30005 6.6 1.30005C6.3 1.30005 6 1.60005 6 2.00005Z" fill="#BCA47C"/>
<path d="M3.3002 6.70005H23.3002C23.7002 6.70005 24.0002 6.40005 24.0002 6.00005C24.0002 5.60005 23.7002 5.30005 23.3002 5.30005H3.3002C3.0002 5.30005 2.7002 5.60005 2.7002 6.00005C2.7002 6.40005 3.0002 6.70005 3.3002 6.70005Z" fill="#BCA47C"/>
<path d="M3.3002 9.3H14.0002C14.4002 9.3 14.7002 9 14.7002 8.6C14.7002 8.3 14.4002 8 14.0002 8H3.3002C3.0002 8 2.7002 8.3 2.7002 8.7C2.7002 9 3.0002 9.3 3.3002 9.3Z" fill="#BCA47C"/>
<path d="M3.29961 12H17.9996C18.3996 12 18.6996 11.7 18.6996 11.3C18.6996 10.9 18.3996 10.6 17.9996 10.6H3.29961C2.89961 10.6 2.59961 10.9 2.59961 11.3C2.69961 11.7 2.99961 12 3.29961 12Z" fill="#BCA47C"/>
<path d="M3.29961 14.7H12.5996C12.9996 14.7 13.2996 14.4 13.2996 14C13.2996 13.6 12.9996 13.3 12.5996 13.3H3.29961C2.89961 13.3 2.59961 13.6 2.59961 14C2.69961 14.4 2.99961 14.7 3.29961 14.7Z" fill="#BCA47C"/>
<path d="M13.9996 16H3.29961C2.89961 16 2.59961 16.3 2.59961 16.7C2.59961 17.1 2.89961 17.4 3.29961 17.4H13.9996C14.3996 17.4 14.6996 17.1 14.6996 16.7C14.6996 16.3 14.3996 16 13.9996 16Z" fill="#BCA47C"/>
<path d="M8.69961 18.7H3.29961C2.89961 18.7 2.59961 19 2.59961 19.4C2.59961 19.8 2.99961 20 3.29961 20H8.59961C8.99961 20 9.29961 19.6999 9.29961 19.2999C9.29961 18.8999 8.99961 18.7 8.69961 18.7Z" fill="#BCA47C"/>
<path d="M32 20V16H30.3C30.2 15.8 30.1 15.6 30.1 15.4L31.3 14.2L29.4 12.3V1.3C29.3 0.6 28.7 0 28 0H1.3C0.6 0 0 0.6 0 1.3V22.6H19L20.9 24.5L22.1 23.3C22.3 23.4 22.5 23.5 22.7 23.5V25.2H26.7V23.5C26.9 23.4 27.1 23.3 27.3 23.3L28.5 24.5L31.3 21.7L30.1 20.5C30.2 20.3 30.3 20.1 30.3 19.9H32V20ZM1.3 1.3H2.6H4.6H6.6H28V2.6H6.7H4.7H2.7H1.3V1.3ZM1.3 4H28V11.8L27.3 12.5C27.1 12.4 26.9 12.3 26.7 12.3V10.6H22.7V12.3C22.5 12.4 22.3 12.5 22.1 12.5L20.9 11.3L18.1 14.1L19.3 15.3C19.2 15.5 19.1 15.7 19.1 15.9H17.4V19.9H19C19.1 20.1 19.2 20.3 19.2 20.5L18.5 21.2H1.3V4ZM29.4 18.7L29.1 19.6C29 19.8 29 19.9 28.9 20.1L28.5 21L29.2 21.7L29.4 21.9L28.5 22.8L28.3 22.6L27.6 21.9L26.7 22.3C26.6 22.4 26.4 22.4 26.2 22.5L25.3 22.8V23.7V24H24V23.7V22.8L23.1 22.5C22.9 22.4 22.8 22.4 22.6 22.3L21.7 21.9L21 22.6L20.8 22.8L20 21.8L20.2 21.6L20.9 20.9L20.5 20C20.4 19.9 20.4 19.7 20.3 19.5L20 18.7H19H18.7V17.4H19H20L20.3 16.5C20.4 16.3 20.4 16.2 20.5 16L20.9 15.1L20.2 14.4L20 14.2L20.9 13.3L21.1 13.5L21.8 14.2L22.7 13.8C22.8 13.7 23 13.7 23.2 13.6L24.1 13.3V12.4V12H25.4V12.3V13.2L26.3 13.5C26.5 13.6 26.6 13.6 26.8 13.7L27.7 14.1L28.4 13.4L28.6 13.2L29.5 14.1L29.3 14.3L28.6 15L29 15.9C29.1 16 29.1 16.2 29.2 16.4L29.5 17.3H30.4H30.7V18.6H30.4H29.4V18.7Z" fill="#BCA47C"/>
<path d="M24.7 15.3C23.2 15.3 22 16.5 22 18C22 19.5 23.2 20.7 24.7 20.7C26.2 20.7 27.4 19.5 27.4 18C27.3 16.5 26.1 15.3 24.7 15.3ZM24.7 19.3C24 19.3 23.4 18.7 23.4 18C23.4 17.3 24 16.7 24.7 16.7C25.4 16.7 26 17.3 26 18C26 18.7 25.4 19.3 24.7 19.3Z" fill="#BCA47C"/>
</g>
<defs>
<clipPath id="clip0">
<rect width="32" height="25.3" fill="white"/>
</clipPath>
</defs>
</svg>
