<svg width="26" height="32" viewBox="0 0 26 32" fill="none" xmlns="http://www.w3.org/2000/svg">
<path d="M24.7 0H18.7H6.7H0.7C0.3 0 0 0.3 0 0.7V31.4C0 31.7 0.3 32 0.7 32H24.7C25.1 32 25.4 31.7 25.4 31.3V0.7C25.3 0.3 25 0 24.7 0ZM10.7 1.3C10.7 1.7 11 2 11.3 2H14C14.4 2 14.7 1.7 14.7 1.3H16.9L16.5 2.6H9L8.5 1.3H10.7ZM8 4H17.3L17.5 3.3H22V28.6H3.3V3.3H7.7L8 4ZM24 30.7H1.3V1.3H7.1L7.3 2H2V30H23.3V2H18L18.2 1.3H24V30.7Z" fill="#BCA47C"/>
<path d="M5.49974 10.4L6.89974 11.8C7.19974 12.1 7.59974 12.1 7.79974 11.8L10.6997 8.99998C10.9997 8.69998 10.9997 8.29998 10.6997 7.99998C10.4997 7.79998 9.99974 7.79998 9.79974 7.99998L7.39974 10.4L6.49974 9.39998C6.19974 9.09998 5.79974 9.09998 5.59974 9.39998C5.29974 9.69998 5.29974 10.1 5.49974 10.4Z" fill="#BCA47C"/>
<path d="M5.49961 17.1L6.89961 18.5C7.19961 18.8 7.59961 18.8 7.79961 18.5L10.5996 15.7C10.8996 15.4 10.8996 15 10.5996 14.8C10.2996 14.5 9.89961 14.5 9.69961 14.8L7.29961 17.2L6.39961 16.3C6.09961 16 5.69961 16 5.49961 16.3C5.29961 16.4 5.29961 16.8 5.49961 17.1Z" fill="#BCA47C"/>
<path d="M5.49961 23.7L6.89961 25.1C7.19961 25.4 7.59961 25.4 7.79961 25.1L10.5996 22.3C10.8996 22 10.8996 21.6 10.5996 21.4C10.2996 21.1 9.89961 21.1 9.69961 21.4L7.29961 23.8L6.39961 22.9C6.09961 22.6 5.69961 22.6 5.49961 22.9C5.29961 23 5.29961 23.5 5.49961 23.7Z" fill="#BCA47C"/>
<path d="M13.2996 10.7H19.2996C19.6996 10.7 19.9996 10.4 19.9996 10C19.9996 9.60005 19.6996 9.30005 19.2996 9.30005H13.2996C12.8996 9.30005 12.5996 9.60005 12.5996 10C12.5996 10.4 12.9996 10.7 13.2996 10.7Z" fill="#BCA47C"/>
<path d="M13.2996 17.3H19.2996C19.6996 17.3 19.9996 17 19.9996 16.6C19.9996 16.2 19.6996 16 19.2996 16H13.2996C12.8996 16 12.5996 16.3 12.5996 16.7C12.5996 17.1 12.9996 17.3 13.2996 17.3Z" fill="#BCA47C"/>
<path d="M13.2996 24H19.2996C19.6996 24 19.9996 23.7 19.9996 23.3C19.9996 22.9 19.6996 22.6 19.2996 22.6H13.2996C12.8996 22.6 12.5996 22.9 12.5996 23.3C12.5996 23.7 12.9996 24 13.2996 24Z" fill="#BCA47C"/>
</svg>
