<svg width="25" height="15" viewBox="0 0 25 15" fill="none" xmlns="http://www.w3.org/2000/svg">
<path fill-rule="evenodd" clip-rule="evenodd" d="M3.9026 0.128906H1.32008C0.582211 0.128906 0.446289 0.477294 0.446289 0.864391C0.446289 1.54181 1.32008 4.90955 4.50454 9.38052C6.64046 12.4192 9.63076 14.0837 12.3686 14.0837C13.9997 14.0837 14.2133 13.716 14.2133 13.0773V10.7741C14.2133 10.0386 14.3686 9.9031 14.8929 9.9031C15.2812 9.9031 15.922 10.0967 17.456 11.5676C19.2036 13.3096 19.4948 14.0837 20.4657 14.0837H23.0482C23.7861 14.0837 24.155 13.716 23.9414 12.9999C23.7084 12.2837 22.8735 11.2386 21.7667 9.99988C21.1647 9.28375 20.2715 8.52891 19.9997 8.14181C19.6113 7.65794 19.7278 7.42568 19.9997 6.99988C19.9997 6.99988 23.1453 2.58697 23.456 1.09665C23.6113 0.554713 23.456 0.148261 22.6793 0.148261H20.0968C19.4366 0.148261 19.1453 0.496649 18.9706 0.883745C18.9706 0.883745 17.6696 4.05794 15.8055 6.12891C15.2036 6.72891 14.9317 6.92246 14.6016 6.92246C14.4463 6.92246 14.1939 6.72891 14.1939 6.18697V1.07729C14.1939 0.419229 13.9997 0.128906 13.456 0.128906H9.41716C9.00939 0.128906 8.75697 0.438584 8.75697 0.709551C8.75697 1.32891 9.68901 1.46439 9.78609 3.20633V6.98052C9.78609 7.81278 9.63075 7.96762 9.30066 7.96762C8.42687 7.96762 6.31037 4.77407 5.04823 1.116C4.81522 0.419229 4.56279 0.128906 3.9026 0.128906Z" fill="white"/>
</svg>
