<svg width="159" height="53" viewBox="0 0 159 53" fill="none" xmlns="http://www.w3.org/2000/svg">
<g opacity="0.4">
<path d="M37.404 29.2658C37.1738 29.2215 36.9613 29.1505 36.7488 29.0618C36.5364 28.9731 36.3416 28.8667 36.1557 28.7426C35.9698 28.6184 35.8016 28.4765 35.6422 28.3168C35.4828 28.1572 35.3412 27.9887 35.2173 27.8024C35.0933 27.6162 34.9871 27.4211 34.8986 27.2082C34.8986 27.2082 33.3227 22.9068 32.8535 21.9401C32.6145 21.4345 32.3312 20.9645 31.9948 20.5476C31.6584 20.1219 31.26 19.7494 30.8085 19.4213C30.3481 19.0931 29.8346 18.8182 29.2415 18.5876C28.6572 18.3659 28.0021 18.1885 27.2761 18.0732C27.2761 18.0732 27.0991 18.0288 26.683 17.9756C31.2334 17.9756 34.6152 15.6342 34.6152 8.99135C34.6152 4.07794 30.9944 0.00708008 25.1337 0.00708008H13.7222H0V2.07355C1.92996 2.07355 3.49694 3.64336 3.49694 5.57679V25.8513C3.49694 27.7847 1.92996 29.3545 0 29.3545V31.421H17.228V29.3545C15.298 29.3545 13.7399 27.7847 13.7399 25.8513V19.2528H18.432C21.2207 19.2528 22.4866 22.3392 23.5844 25.3457C24.6733 28.3523 25.6737 31.421 28.852 31.421H38.1122V29.3545C37.8643 29.3368 37.6341 29.3102 37.404 29.2658ZM19.6094 16.0599H13.7399V3.1733H19.6094C23.7349 3.1733 25.0098 6.05572 25.0098 9.61218C25.0098 13.1775 23.7438 16.0599 19.6094 16.0599Z" fill="#3D4D66"/>
<path d="M109.945 0H98.6577H84.9355V2.06647C86.8655 2.06647 88.4236 3.63628 88.4236 5.56972V25.8531C88.4236 27.7865 86.8566 29.3563 84.9355 29.3563V31.4228H109.936C115.797 31.4228 119.861 26.7134 119.861 21.7999V9.62284C119.869 4.70943 115.806 0 109.945 0ZM109.945 21.7822C109.945 25.3387 108.67 28.2211 104.545 28.2211H98.6754V3.17509H104.545C108.67 3.17509 109.945 6.05751 109.945 9.61397V21.7822Z" fill="#3D4D66"/>
<path d="M82.5545 29.3386C82.5014 29.3386 82.4482 29.3298 82.3951 29.3298C82.342 29.3209 82.2889 29.3209 82.2358 29.312C82.1827 29.3032 82.1295 29.2943 82.0764 29.2854C82.0233 29.2766 81.9702 29.2677 81.9171 29.25C81.864 29.2411 81.8108 29.2234 81.7666 29.2056C81.7134 29.1879 81.6692 29.1701 81.6161 29.1524C81.5718 29.1347 81.5187 29.1169 81.4744 29.0992C81.4302 29.0814 81.377 29.0548 81.3328 29.0371C81.2885 29.0194 81.2354 28.9928 81.1911 28.9662C81.1469 28.9395 81.1026 28.9129 81.0583 28.8863C81.0141 28.8597 80.9698 28.8331 80.9255 28.8065C80.8812 28.7799 80.837 28.7444 80.8016 28.7178C80.7573 28.6823 80.7219 28.6557 80.6776 28.6203C80.6422 28.5848 80.598 28.5493 80.5626 28.5227C80.5272 28.4872 80.4829 28.4517 80.4475 28.4163C80.4121 28.3808 80.3767 28.3453 80.3412 28.301C80.3058 28.2655 80.2793 28.2212 80.2438 28.1857C80.2084 28.1502 80.1819 28.1059 80.1465 28.0615C80.1199 28.0172 80.0845 27.9817 80.0579 27.9374C80.0314 27.893 80.0048 27.8487 79.9694 27.8043C79.9428 27.76 79.9163 27.7156 79.8897 27.6713C79.8632 27.6269 79.8454 27.5826 79.8189 27.5294C79.7923 27.485 79.7746 27.4318 79.7569 27.3875C79.7392 27.3431 79.7215 27.2899 79.695 27.2456C79.6773 27.1924 79.6596 27.148 79.6418 27.0948C79.6241 27.0416 79.6064 26.9972 79.5976 26.944L72.2319 0.0178223H50.4801L43.1144 26.944C43.0967 26.9972 43.0878 27.0416 43.0701 27.0948C43.0524 27.148 43.0347 27.1924 43.017 27.2456C42.9993 27.2899 42.9816 27.3431 42.955 27.3875C42.9373 27.4318 42.9107 27.485 42.893 27.5294C42.8665 27.5737 42.8488 27.6269 42.8222 27.6713C42.7957 27.7156 42.7691 27.76 42.7426 27.8043C42.716 27.8487 42.6894 27.893 42.654 27.9374C42.6275 27.9817 42.592 28.0172 42.5655 28.0615C42.5389 28.1059 42.5035 28.1413 42.4681 28.1857C42.4327 28.2212 42.4061 28.2655 42.3707 28.301C42.3353 28.3365 42.2999 28.3719 42.2645 28.4163C42.2291 28.4517 42.1937 28.4872 42.1494 28.5227C42.114 28.5582 42.0697 28.5937 42.0343 28.6203C41.9989 28.6557 41.9546 28.6823 41.9104 28.7178C41.8661 28.7444 41.8307 28.7799 41.7864 28.8065C41.7422 28.8331 41.6979 28.8597 41.6536 28.8863C41.6094 28.9129 41.5651 28.9395 41.5208 28.9662C41.4766 28.9928 41.4323 29.0105 41.3792 29.0371C41.3349 29.0637 41.2818 29.0814 41.2375 29.0992C41.1933 29.1169 41.1401 29.1347 41.0959 29.1524C41.0428 29.1701 40.9985 29.1879 40.9454 29.2056C40.8923 29.2234 40.848 29.2411 40.7949 29.25C40.7418 29.2677 40.6887 29.2766 40.6355 29.2854C40.5824 29.2943 40.5293 29.3032 40.4762 29.312C40.4231 29.3209 40.3699 29.3298 40.3168 29.3298C40.2637 29.3386 40.2106 29.3386 40.1575 29.3386C40.1043 29.3386 40.0512 29.3475 39.9893 29.3475V31.4406H55.8627V29.3475C55.8184 29.3475 55.7742 29.3475 55.7387 29.3475C55.6945 29.3475 55.6591 29.3386 55.6148 29.3386C55.5705 29.3298 55.5351 29.3298 55.4909 29.3209C55.4466 29.312 55.4112 29.312 55.3669 29.3032C55.3315 29.2943 55.2872 29.2854 55.2518 29.2766C55.2164 29.2677 55.1722 29.2588 55.1368 29.2411C55.1013 29.2322 55.0659 29.2145 55.0217 29.2056C54.9862 29.1967 54.9508 29.179 54.9154 29.1613C54.88 29.1435 54.8446 29.1347 54.8092 29.1169C54.7738 29.0992 54.7383 29.0814 54.7029 29.0637C54.6675 29.046 54.6321 29.0282 54.6056 29.0016C54.5702 28.9839 54.5436 28.9573 54.5082 28.9395C54.4728 28.9129 54.4462 28.8952 54.4108 28.8686C54.3754 28.842 54.3488 28.8242 54.3134 28.7976C54.2868 28.771 54.2515 28.7444 54.2249 28.7178C54.1983 28.6912 54.1718 28.6646 54.1364 28.638C54.1098 28.6114 54.0832 28.5848 54.0567 28.5493C54.0301 28.5227 54.0036 28.4961 53.977 28.4606C53.9505 28.434 53.9327 28.3985 53.9062 28.3631C53.8796 28.3365 53.8619 28.301 53.8354 28.2655C53.8177 28.23 53.7911 28.2034 53.7734 28.1679C53.7557 28.1325 53.7291 28.097 53.7114 28.0704C53.6937 28.0349 53.676 27.9994 53.6583 27.964C53.6406 27.9285 53.6229 27.893 53.6052 27.8575C53.5875 27.8221 53.5786 27.7866 53.5609 27.7511C53.5432 27.7156 53.5344 27.6802 53.5255 27.6358C53.5166 27.6003 53.5078 27.556 53.4901 27.5205C53.4812 27.485 53.4724 27.4407 53.4635 27.4052C53.4547 27.3697 53.4458 27.3254 53.4458 27.2899C53.437 27.2456 53.437 27.2101 53.4281 27.1657C53.4281 27.1214 53.4193 27.0859 53.4193 27.0416C53.4193 26.9972 53.4193 26.9618 53.4193 26.9174C53.4193 26.8819 53.4193 26.8376 53.4193 26.7933C53.4193 26.7578 53.4281 26.7134 53.4281 26.6691C53.437 26.6336 53.437 26.5893 53.4458 26.5449C53.4547 26.5094 53.4547 26.4651 53.4635 26.4208C53.4724 26.3853 53.4812 26.3409 53.4901 26.3055L54.579 21.8621H67.6283L68.6553 26.3055C68.6641 26.3409 68.673 26.3853 68.6818 26.4208C68.6907 26.4562 68.6995 26.5006 68.6995 26.5449C68.7084 26.5804 68.7084 26.6247 68.7172 26.6691C68.7172 26.7134 68.7261 26.7489 68.7261 26.7933C68.7261 26.8376 68.7261 26.8819 68.7261 26.9174C68.7261 26.9618 68.7261 27.0061 68.7261 27.0416C68.7261 27.0859 68.7172 27.1214 68.7172 27.1657C68.7084 27.2012 68.7084 27.2456 68.6995 27.2899C68.6907 27.3254 68.6818 27.3697 68.6818 27.4052C68.673 27.4407 68.6641 27.485 68.6553 27.5205C68.6464 27.556 68.6376 27.6003 68.6199 27.6358C68.611 27.6713 68.5933 27.7068 68.5845 27.7511C68.5668 27.7866 68.5579 27.8221 68.5402 27.8575C68.5225 27.893 68.5048 27.9285 68.4871 27.964C68.4694 27.9994 68.4517 28.0349 68.4339 28.0704C68.4162 28.1059 68.3985 28.1413 68.372 28.1679C68.3543 28.2034 68.3277 28.23 68.31 28.2655C68.2923 28.301 68.2657 28.3276 68.2392 28.3631C68.2126 28.3985 68.1949 28.4251 68.1684 28.4606C68.1418 28.4872 68.1152 28.5227 68.0887 28.5493C68.0621 28.5759 68.0356 28.6114 68.009 28.638C67.9824 28.6646 67.9559 28.6912 67.9205 28.7178C67.8939 28.7444 67.8585 28.771 67.8319 28.7976C67.7965 28.8242 67.77 28.8509 67.7346 28.8686C67.708 28.8863 67.6726 28.9129 67.6372 28.9395C67.6018 28.9573 67.5752 28.9839 67.5398 29.0016C67.5044 29.0194 67.469 29.0371 67.4424 29.0637C67.407 29.0814 67.3716 29.0992 67.3362 29.1169C67.3008 29.1347 67.2654 29.1524 67.23 29.1613C67.1945 29.179 67.1591 29.1879 67.1149 29.2056C67.0794 29.2234 67.044 29.2322 66.9998 29.2411C66.9644 29.25 66.9201 29.2677 66.8847 29.2766C66.8493 29.2854 66.805 29.2943 66.7696 29.3032C66.7342 29.312 66.6899 29.3209 66.6457 29.3209C66.6102 29.3298 66.566 29.3298 66.5217 29.3386C66.4774 29.3386 66.442 29.3475 66.3978 29.3475C66.3535 29.3475 66.3181 29.3475 66.2738 29.3475V31.414H82.6253V29.3475C82.6607 29.3386 82.6076 29.3386 82.5545 29.3386ZM55.42 18.687L59.2268 3.17518H63.3523L66.9466 18.687H55.42Z" fill="#3D4D66"/>
<path d="M148.438 0H134.946C129.085 0 125.022 4.70943 125.022 9.62284V21.7911C125.022 26.7045 129.085 31.4139 134.946 31.4139H148.438C154.299 31.4139 158.362 26.7045 158.362 21.7911V9.62284C158.362 4.70943 154.308 0 148.438 0ZM148.438 21.7822C148.438 25.3387 147.163 28.2211 143.038 28.2211H140.338C136.212 28.2211 134.937 25.3387 134.937 21.7822V9.62284C134.937 6.06638 136.203 3.18396 140.338 3.18396H143.038C147.163 3.18396 148.438 6.06638 148.438 9.62284V21.7822Z" fill="#3D4D66"/>
<path d="M5.01986 44.3538C5.01986 43.2806 4.63034 42.5356 3.43518 42.5356C2.37281 42.5356 1.74424 43.1121 1.74424 44.1941C1.74424 47.0677 6.56029 45.356 6.56029 49.0898C6.56029 51.449 4.83395 52.123 3.39091 52.123C1.00944 52.123 0.310059 50.8902 0.310059 48.7173H1.56719C1.56719 49.8614 1.63801 51.0942 3.47944 51.0942C4.47984 51.0942 5.25005 50.3758 5.25005 49.2938C5.25005 46.4025 0.442849 48.0787 0.442849 44.3272C0.442849 43.3871 0.841244 41.5068 3.42633 41.5068C5.36514 41.5068 6.25044 42.4824 6.28585 44.3538H5.01986Z" fill="#3D4D66"/>
<path d="M15.2979 41.7019H16.555L18.1131 50.0565H18.1397L19.5827 41.7019H21.0966L22.5396 50.0565H22.5662L24.1243 41.7019H25.3814L23.2833 51.919H21.7517L20.3529 43.6531H20.3264L18.8568 51.919H17.3252L15.2979 41.7019Z" fill="#3D4D66"/>
<path d="M34.5088 51.919H35.7659V41.7108H34.5088V51.919Z" fill="#3D4D66"/>
<path d="M48.7003 51.919H47.4521V42.8194H44.8936V41.7108H51.2766V42.8194H48.7003V51.919Z" fill="#3D4D66"/>
<path d="M59.8994 50.8636L64.4853 42.8194H60.1562V41.7108H65.7955V42.8638L61.2185 50.8015H65.8575V51.919H59.8994V50.8636Z" fill="#3D4D66"/>
<path d="M75.1973 41.7019H80.4648V42.8194H76.4544V46.03H80.2346V47.1475H76.4544V50.8015H80.633V51.919H75.1973V41.7019Z" fill="#3D4D66"/>
<path d="M89.9907 41.7019H93.2929C94.8953 41.7019 95.9045 42.6509 95.9045 44.265C95.9045 45.3825 95.5239 46.5532 94.3376 46.837V46.8725C95.2229 46.9701 95.7186 47.6973 95.7806 48.5754L95.8691 50.3225C95.9222 51.4489 96.1082 51.7416 96.4092 51.9278H94.8953C94.6828 51.715 94.5766 50.9522 94.55 50.4556L94.4615 48.868C94.3641 47.4667 93.5939 47.378 92.9476 47.378H91.2478V51.9278H89.9907V41.7019ZM91.2478 46.3404H92.4961C93.2398 46.3404 94.5943 46.3404 94.5943 44.3626C94.5943 43.3604 93.9215 42.7307 92.7529 42.7307H91.2567V46.3404H91.2478Z" fill="#3D4D66"/>
<path d="M105.59 41.7019H106.847V50.8015H110.981V51.919H105.59V41.7019Z" fill="#3D4D66"/>
<path d="M122.11 41.7019H123.792L126.536 51.919H125.226L124.5 49.1164H121.242L120.481 51.919H119.17L122.11 41.7019ZM121.499 48.0876H124.243L122.942 43.1564H122.915L121.499 48.0876Z" fill="#3D4D66"/>
<path d="M135.433 41.7019H137.062L140.435 50.2339H140.462V41.7019H141.719V51.919H139.992L136.717 43.6531H136.69V51.919H135.433V41.7019Z" fill="#3D4D66"/>
<path d="M151.687 41.7019H154.414C157.583 41.7019 157.982 43.9901 157.982 46.8104C157.982 49.3824 157.344 51.919 154.538 51.919H151.678V41.7019H151.687ZM152.944 50.8902H154.254C156.423 50.8902 156.671 48.6552 156.671 46.8282C156.671 44.8504 156.547 42.7396 154.254 42.7396H152.944V50.8902Z" fill="#3D4D66"/>
</g>
</svg>
